<?xml version="1.0" encoding="utf-8"?>
<!-- Generator: Adobe Illustrator 21.1.0, SVG Export Plug-In . SVG Version: 6.00 Build 0)  -->
<svg version="1.1" id="Capa_1" xmlns="http://www.w3.org/2000/svg" xmlns:xlink="http://www.w3.org/1999/xlink" x="0px" y="0px"
	 viewBox="0 0 64.2 104.1" style="enable-background:new 0 0 64.2 104.1;" xml:space="preserve">
<style type="text/css">
	.st0{opacity:0.4;}
	.st1{fill:#415889;}
	.st2{fill:#2D3542;}
	.st3{fill:#9AA0A7;}
	.st4{fill-rule:evenodd;clip-rule:evenodd;fill:#2D3542;}
	.st5{fill-rule:evenodd;clip-rule:evenodd;fill:#9AA0A7;}
	.st6{fill-rule:evenodd;clip-rule:evenodd;fill:#415889;}
</style>
<g class="st0">
	<path class="st1" d="M53.9,24.6c-0.3-0.6-0.5-1.2-0.7-1.9c-0.1-0.2-0.3-0.5-0.4-0.8c-0.4-1.1-0.5-2.2-0.6-3.4
		c-0.2-0.6-0.5-1.3-0.8-1.8c-0.3-0.2-0.6-0.4-0.8-0.8c-0.6-0.9-1.5-1.4-2.1-2.3c-0.2-0.3-0.5-0.7-0.6-1c-0.3-0.2-0.7-0.4-1-0.6
		c-1.3-0.7-2.5-1.4-3.8-2.2c-1.5-0.9-2.8-2.1-4.1-3.3c-1.2-1.1-2.3-2.1-3.7-2.6c-1.6-0.6-3.3-0.9-4.9-1.5c-1.1,0.5-2.3,0.9-3.5,1.2
		c-1.8,0.5-3.7,0.9-5.5,1.2c-0.8,0.2-1.6,0.3-2.4,0.5c-0.1,0-0.2,0-0.3,0.1c-0.2,0-0.3,0.1-0.5,0.1c-0.3,0.1-0.7,0.2-1,0.3
		c-0.9,0.3-1.1,0.4-1.9,0.9c-0.4,0.2-0.7,0.4-1,0.7c0,0-0.1,0-0.1,0.1c0,0,0,0-0.1,0.1C14,8,13.9,8.1,13.8,8.2
		c-0.3,0.3-0.6,0.6-0.8,0.9c0,0-0.2,0.3-0.2,0.2c-0.1,0.1-0.1,0.2-0.2,0.3c-0.3,0.5-0.6,1.1-0.8,1.7c-0.5,1.4-0.9,2.8-1.3,4.2
		c-0.6,1.9-1.3,3.7-2.1,5.4C6,26.3,3.4,31.6,2.1,37.3c0.5,0.1,0.9,0.3,1.4,0.5c0.1,0.1,0.3,17.3,0.3,17.4c0.8,1.5,1.6,9.5,2.8,10.3
		c0.9,0.5,4.4-2.6,5-1.7c0.1,0.1,4.1,1.1,4.2,1.2c1.1,0.4,1.9-4.8,2.4-3.7c0.1,0.2,1.9-0.5,2.2-0.4c0.4,0-1-3.8-2.4-7.7
		c1.8,0,3.5-0.1,5.3-0.1c0.4,0,0.6,0.1,0.6,0.5c0,0.4,0.3,0.8,0.2,1.3c0,0.2,0.1,0.3,0.2,0.4c0.3,0.1,0.2-0.2,0.4-0.3
		c0.5-0.4,0.7-0.9,0.7-1.4c0-0.4,0.4-0.4,0.7-0.5c1.4-0.2,2.7-0.1,4.1-0.1c1.1,0,2.2,0,3.3,0c0.8,0,1.1,0.2,0.7,1
		c-0.3,0.7-0.5,1.5-0.8,2.2c-0.1,0.2-0.1,0.4,0,0.6l0,0c0.6-0.9,1.1-1.8,1.5-2.8c0.2-0.6,0.1-1.1,0.2-1.7c0.3-1.3,1.2-2.3,1.6-3.5
		c0.7-2.2,1.5-4.4,2.3-6.6c0.7-2.1,1.4-4.2,2.2-6.3c0.3-0.7,0.3-1.5,0.4-2.2c0.1-0.9,0.6-1.7,0.9-2.5c1.4-4,2.9-8.1,4.3-12.1
		c0-0.1,0.1-0.2,0-0.4c-0.3,0-0.3,0.3-0.3,0.5c-1.1,3.2-2.4,6.4-3.6,9.7c-0.5,1.3-0.8,2.7-1.2,4c-0.2,0.6-0.5,0.8-1.1,0.8
		c-4,0.1-8,0.3-12,0.4c-0.7,0-0.8-0.1-0.7-0.9c0.2-1.3,0.4-2.7,0.6-4c0.4-3.1,0.7-6.2,1.1-9.3c0.1-0.6,0.3-0.9,0.9-0.9
		c1.5,0,2.9-0.1,4.4-0.2c0.2,0,0.4,0,0.5,0c0.3-0.1,0.5-0.1,0.5-0.5c0-0.3-0.3-0.3-0.5-0.3c-0.7,0-1.3,0-2,0.1
		c-1.3,0.2-2.7,0.2-4,0.2c-0.4,0-0.7,0.2-1,0.5c-0.5,0.6-1.1,1-1.5,1.6c0,0.3-0.1,0.5-0.4,0.9c-0.1-0.5-0.2-0.8,0.4-0.9
		c0-0.8,0.6-1.4,0.6-2.3c0-0.1,0.2-0.2,0.2-0.1c1,0.2,2-0.7,3-0.2c0.1,0,0.2,0,0.2,0c1-0.6,2,0,3-0.1c1-0.2,2.1-0.1,3.2-0.2
		c1.1-0.1,2.2-0.1,3.2-0.2c1.1-0.1,2.1-0.1,3.2-0.2c1.1-0.1,2.2-0.1,3.2-0.2c0.6,0,1.1-0.1,1.7-0.2c0.4,0,0.8,0.1,0.7,0.6
		c0.9,1.2,1.7,2.5,2.1,4c0.3,0.3,0.5,0.8,0.6,1.2c0.8,1,1,2.3,1.7,3.3c0.6,0.9,0.2,1.6,0,2.4c-0.7,2.2-1.5,4.4-2.3,6.8
		c-0.1-0.5,0.1-0.8,0.1-1.1c-0.2,0-0.3,0.2-0.4,0.3c-0.5,2-1.3,3.9-1.9,5.9c-0.1,0.3,0,0.8-0.6,0.7c0,0.4,0,0.8-0.1,1.2
		c0.1,0.5-0.2,0.9-0.3,1.4c-1.3,4.2-2.7,8.3-4,12.4c-0.1,0.4-0.1,0.8-0.6,1c-0.1,0.4-0.2,0.9-0.3,1.3c-0.2,1.4-0.8,2.7-1.2,4
		c-0.3,1.1-0.7,2.1-0.6,3.3c0.3-0.4,0.4-0.8,0.5-1.2c0.1-0.4,0.3-0.6,0.6-0.9c0.1-0.1,0.2-0.2,0.3-0.2c0.8-2.9,1.5-5.8,2.4-8.7
		c1.1-3.8,2.7-7.5,4-11.3c1.2-3.6,2.5-7.2,3.5-10.9c0.4-1.4,0.7-2.9,1.2-4.3c0.3-0.8,0.6-1.7,1.2-2.4C54.4,25.2,54.1,25,53.9,24.6z
		 M26.1,21.3c0.1,0.1,0.1,0.1,0.1,0.2c0,0,0,0.1-0.1,0.1c-0.1,0-0.1,0-0.1-0.1C26,21.4,26.1,21.4,26.1,21.3z M22.3,33.9
		c-0.1,0.5-0.3,1-0.6,1.5C21.8,34.8,22,34.3,22.3,33.9z M21,35.6c-0.3,0.8-0.7,1.7-1,2.5C20.2,37.2,20.5,36.4,21,35.6z M19.9,38.3
		C19.9,38.2,19.9,38.2,19.9,38.3C19.9,38.3,19.9,38.3,19.9,38.3C19.9,38.3,19.9,38.3,19.9,38.3z M18.6,41.6
		C18.6,41.6,18.7,41.6,18.6,41.6c0,0.1,0,0.1,0,0.2C18.6,41.7,18.6,41.6,18.6,41.6z M18.3,42.6c-0.1,0.3-0.2,0.6-0.3,0.9
		C18,43.2,18,42.8,18.3,42.6z M18,43.6c-0.2,0.3-0.2,0.7-0.5,1C17.5,44.1,17.6,43.8,18,43.6z M17.5,44.6c-0.1,0.3-0.1,0.5-0.3,0.7
		C17.2,45,17.3,44.8,17.5,44.6z M17.2,45.3c0,0.2,0,0.3-0.1,0.4C17,45.6,17.1,45.5,17.2,45.3z M16.7,46.6c0,0.1-0.1,0.2-0.1,0.3
		C16.6,46.8,16.6,46.7,16.7,46.6z M16.6,46.9c0,0.2-0.1,0.4-0.1,0.6C16.4,47.3,16.4,47.1,16.6,46.9z M16.4,47.6
		c-0.1,0.1-0.1,0.2-0.2,0.4c0-0.1,0-0.1-0.1-0.2C16.3,47.7,16.3,47.6,16.4,47.6z M15.6,45.6c0.4,0.2,0.2,0.5,0.1,0.8
		C15.6,45.9,15.5,45.6,15.6,45.6z M25.2,42.4c-0.3,2.7-0.6,5.3-0.9,8c-0.1,1.1-0.1,1.1-1.3,1.1c-1.8,0-3.6,0.1-5.5,0.1
		c-0.4-1-0.7-2-1-2.9c0.8-1.9,1.5-3.9,2.2-5.8c1-2.5,2-5,2.9-7.5c1.2,0,2.3-0.1,3.5-0.2c0.7-0.1,0.9,0.2,0.8,0.9
		C25.7,38.2,25.5,40.3,25.2,42.4z M28.4,35.1c1,0,2,0,2.9,0V35c2.9-0.1,5.8-0.2,8.6-0.4c0.7,0,0.9,0.1,0.6,0.9
		c-0.8,2.3-1.7,4.6-2.5,6.9c-0.9,2.6-1.8,5.3-2.7,8c-0.2,0.7-0.6,1-1.3,1c-2.4,0-4.8,0.1-7.3,0.1c-1.1,0-1.1,0-1-1.1
		c0.4-3.8,0.9-7.7,1.3-11.5c0.1-1,0.3-2,0.3-3C27.5,35.2,27.8,35.1,28.4,35.1z M27.4,20.7c0.1-0.2,0.1-0.4,0.4-0.5
		c0.3,0.9,0,1.9-0.1,2.8c-0.4,3.3-0.9,6.7-1.3,10c-0.1,0.7-0.4,0.9-1,0.9c-1,0-2.1,0-3.1,0c0.6-1.6,1.2-3.2,1.8-4.7
		C25.2,26.3,26.3,23.5,27.4,20.7z M42.3,62.4c0-0.4,0.1-0.8,0.4-1.3C42.8,61.8,42.6,62.1,42.3,62.4z M42.8,60.7L42.8,60.7L42.8,60.7
		L42.8,60.7z M43.5,58.5c0-0.5,0.2-1,0.5-1.4C43.9,57.6,43.8,58.1,43.5,58.5z M44,57.1c0-0.3,0-0.5,0.2-0.8
		C44.2,56.6,44.1,56.9,44,57.1z"/>
	<path class="st1" d="M34.4,0.2c0.1-0.1,0.3-0.1,0.4-0.2c0,0,0,0,0,0c-0.2,0-0.3,0-0.5,0c0,0.1-0.1,0.1-0.2,0.2
		C34.3,0.2,34.4,0.2,34.4,0.2z"/>
	<path class="st1" d="M18.5,41.8C18.5,41.8,18.5,41.8,18.5,41.8C18.5,41.8,18.5,41.8,18.5,41.8C18.5,41.8,18.5,41.8,18.5,41.8z"/>
	<path class="st1" d="M17,45.8C17,45.8,17,45.8,17,45.8C17,45.8,17,45.9,17,45.8C17,45.9,17,45.9,17,45.8z"/>
	<path class="st1" d="M16.8,46.5C16.8,46.5,16.8,46.5,16.8,46.5C16.8,46.5,16.7,46.5,16.8,46.5C16.7,46.5,16.8,46.5,16.8,46.5z"/>
	<path class="st2" d="M63.6,80.1c0.2,0,0.3,0,0.5,0c0-0.2,0.1-0.3,0.1-0.5c-0.2,0-0.4,0-0.6,0c-0.2,0-0.4,0.1-0.4,0.3
		C63.2,80.2,63.4,80.1,63.6,80.1z"/>
	<path class="st2" d="M60.2,94.5c0.6-2.4,1.3-4.8,1.9-7.1C62,87.3,62,87.2,62,87.1c-0.1-0.4,0-0.7,0.4-0.8c0-0.1,0-0.1,0-0.2
		c-0.3,0-0.6-0.1-0.5-0.4c0.1-0.5-0.4-1.3,0.5-1.6c0.2-0.1,0.4-0.2,0.6-0.3c0,0,0,0,0,0c-1.5-0.3-0.8-1.5-1.1-2.6
		c0,0.5-0.1,0.9-0.1,1.3c0,0-0.1,0-0.1,0c0-0.4,0.1-0.9-0.1-1.1c-0.7-0.8-0.2-1.8-0.6-2.7v2c-0.4-0.2-0.2-0.5-0.3-0.6
		c-0.1,0.1-0.1,0.2-0.2,0.4c-0.2-0.7,0-1.5-0.3-2.2v1.9c-0.4-0.7-0.2-1.4-0.3-2.3c-0.3,0.8,0,1.6-0.4,2.2c-0.2-0.7-0.1-1.3-0.1-1.9
		c0-0.4-0.2-0.6-0.5-0.6c-0.4,0-0.3,0.4-0.3,0.6c-0.1,0.6,0,1.2-0.2,1.8c0,0.2,0,0.3,0,0.5c0,0.1,0.1,0.2,0,0.4c0-0.1,0-0.2,0-0.4
		c-0.1-0.3-0.5-0.5-1-0.7c-0.4-0.1-0.9-0.1-1-0.8c0.4,0.2,0.8,0.4,1.2,0.6v-2.6c-0.1,0-0.1,0-0.2,0c-0.1,0.7-0.2,1.4-0.2,2.2
		c-0.1,0-0.1,0-0.2,0c0-0.7-0.1-1.3,0-2c0.1-0.7-0.7-0.5-0.9-0.9c0-0.1-0.1,0.2-0.1,0.3c0,0.6,0,1.2-0.1,1.7c-0.1,0.4,0.3,1-0.6,1
		c0,0-0.1,0.2-0.1,0.3c-0.2,3.1-0.3,6.2-0.4,9.2c0,0.1,0,0.2-0.1,0.4c-0.2-0.3-0.2-0.7-0.2-1c0.2-5.3,0.4-10.6,0.6-15.9
		c0-0.3,0-0.6-0.4-0.7c-0.5-0.2-0.8-0.5-0.7-1.2c0.1-1,0.1-1.1-1-1c-1,0-2,0-3.1,0.1c-0.8,0.1-1.7-0.1-2.6,0c0,0.9-0.5,0.7-1,0.5
		c-0.1,0-0.3,0-0.4,0c-0.2,1.2-1,1.1-1.9,1.1c-0.9,0-1.7,0.2-2.6,0c-0.1,0-0.3,0-0.3-0.1c-0.2-0.7-1-0.6-1.5-0.9
		c0.6-1.5,1.1-3,1.4-4.5c0-0.1,0.1-0.2,0.2-0.3c-0.2-1.2,0.2-2.2,0.6-3.3c0.4-1.3,1-2.6,1.2-4c-0.8-0.1-1.1-0.7-1.7-1.1
		c-0.2-0.1-0.3-0.2-0.5-0.4c-0.2-0.2-0.5-0.3-0.7-0.2c-0.2,0.1-0.2,0.5-0.2,0.7c0.1,0.2,0.3,0.4,0.1,0.7c0.2,0.5-0.5,0.6-0.6,1.1
		c-0.3,1.5-0.7,2.9-1,4.4c-0.1,0.4-0.3,0.8-0.5,1.2c0.3-1.6,0.7-3.3,1-4.9l-0.2-0.1c-0.6,0.6-0.9,1.3-1.2,2.1c0.2,0.1,0.1,0.2,0,0.3
		c0,0.3-0.2,0.6-0.3,0.9c-0.1,0.5-0.2-0.1-0.4,0l0,0c-0.2,0.5-0.5,1-0.7,1.4c0,0-0.1,0-0.1-0.1c0.2-0.5,0.3-1,0.6-1.5
		c0.9-2.2,1.9-4.3,2.8-6.5c0.1-0.3,0.2-0.6,0.3-0.9c-0.2,0.3-0.5,0.3-0.8,0c-0.6-0.5-1.3-1-1.9-1.5c-0.4-0.3-0.5-0.3-0.7,0.2
		c-0.6,1.8-1.2,3.6-1.8,5.4c-0.1,0.2-0.1,0.3-0.3,0.5c-0.3-0.5-0.3-1,0-1.4c0.9-1.6,1.2-3.4,1.6-5.1c0.3-1.4,0.8-2.7,1.4-4
		c0.6-1.1,0.9-2.4,1.2-3.7c0.1-0.3,0.1-0.5,0.2-0.8c0.9-2.2,1.5-4.4,2.2-6.6c0.1-0.4,0.6-0.6,0.6-1c-0.2-0.1-0.2-0.2-0.1-0.3
		c0.1-0.2,0.2-0.3,0.3-0.5c0-0.1,0-0.2,0-0.4c0.1-0.3,0.1-0.5,0.3-0.7c0-0.1,0-0.1,0-0.2c0.3-1.2,0.8-2.4,1.3-3.5
		c0.6-1.3,0.7-2.7,1.3-3.9c0.2-0.5,0.5-0.9,0.8-1.4c0.5-2.5,1.5-5,2.4-7.4c0.3-0.7,0.3-1.5,1.1-1.9c0-0.5-0.3-0.7-0.7-0.6
		c-0.6,0-1.1,0.1-1.7,0.2c-1.1,0.1-2.2,0.1-3.2,0.2c-1.1,0.1-2.1,0.1-3.2,0.2c-1.1,0.1-2.2,0-3.2,0.2c-1,0.1-2.1,0-3.2,0.2
		c-1,0.1-2-0.4-3,0.1c-0.1,0-0.2,0-0.2,0c-1-0.5-2,0.4-3,0.2c-0.1,0-0.2,0.1-0.2,0.1c0,0.8-0.7,1.4-0.6,2.3l0,0
		c0.4-0.6,1-1.1,1.5-1.6c0.3-0.4,0.6-0.5,1-0.5c1.3,0,2.7,0,4-0.2c0.6-0.1,1.3-0.1,2-0.1c0.2,0,0.5,0,0.5,0.3c0,0.4-0.2,0.4-0.5,0.5
		c-0.2,0-0.4,0-0.5,0c-1.5,0.1-2.9,0.2-4.4,0.2c-0.7,0-0.9,0.3-0.9,0.9c-0.3,3.1-0.7,6.2-1.1,9.3c-0.2,1.4-0.3,2.7-0.6,4
		c-0.1,0.7-0.1,0.9,0.7,0.9c4-0.1,8-0.3,12-0.4c0.6,0,0.9-0.2,1.1-0.8c0.5-1.3,0.8-2.7,1.2-4c1.2-3.2,2.5-6.4,3.6-9.7
		c0.1-0.2,0-0.4,0.3-0.5c0.1,0.1,0,0.3,0,0.4c-1.4,4-2.9,8.1-4.3,12.1c-0.3,0.8-0.7,1.7-0.9,2.5c-0.1,0.7-0.1,1.5-0.4,2.2
		c-0.8,2.1-1.4,4.2-2.2,6.3c-0.8,2.2-1.6,4.4-2.3,6.6c-0.4,1.3-1.3,2.3-1.6,3.5c-0.2,0.6-0.1,1.1-0.2,1.7c-0.3,1-0.8,2-1.5,2.8
		c0,0,0,0.1,0,0.1c0,0.1-0.1,0-0.1,0c0,0,0.1-0.1,0.1-0.1c-0.1-0.2-0.1-0.4,0-0.6c0.3-0.7,0.5-1.5,0.8-2.2c0.4-0.8,0.2-1-0.7-1
		c-1.1,0-2.2,0-3.3,0c-1.4,0-2.7-0.1-4.1,0.1c-0.3,0-0.6,0-0.7,0.5c0,0.6-0.2,1.1-0.7,1.4c-0.1,0.1-0.1,0.4-0.4,0.3
		c-0.2-0.1-0.3-0.2-0.2-0.4c0.1-0.5-0.2-0.8-0.2-1.3c0-0.4-0.2-0.5-0.6-0.5c-2.6,0.1-5.2,0.1-7.8,0.1c-0.6,0-0.9,0.2-1.1,0.8
		c-0.4,1.1-0.8,2.1-1.2,3.1c0,0,0,0,0,0c0,0.1-0.1,0.2-0.2,0.3c0,0,0,0,0,0c-0.4,1.5-1,3-1.6,4.4c-1.1,3.1-2.2,6.1-3.4,9.2
		C8.1,71.3,8,71.5,8,71.8c0,0,0,0,0,0c0,0,0,0,0,0c0.3-0.3,0.2-1,0.7-1.1c0.8-0.2,1.5-0.1,2.3,0.1c0.2,0,0.5,0.2,0.4,0.5
		c-0.1,0.4-0.1,1-0.7,1c-0.8,0.1-1.5,0-2.3,0c-0.3,0-0.4-0.2-0.4-0.4c0,0,0,0,0,0c0,0,0,0,0,0c-0.6,0.7-0.7,1.6-1.1,2.4
		c-0.4,0.8-0.7,1.7-1.1,2.7c-0.2-0.4-0.1-0.7,0-0.9c0.3-1.3,0.8-2.6,1.3-3.8c1.5-3.9,2.9-7.7,4.4-11.6c0.4-1.1,0.8-2.2,1.5-3.1
		c0,0,0,0,0,0c0-0.1,0.1-0.2,0.2-0.3c0,0,0,0,0,0c-0.1-0.3,0-0.6,0-0.9c0.1-0.6,0.5-1.2,0.5-1.9c-0.2,0.4-0.7,0.2-1.1,0.4
		c-1.1,2.9-2.2,5.8-3.2,8.7c-0.7,1.9-1.4,3.9-2.1,5.8c-2,5.3-3.9,10.5-5.9,15.8c-0.1,0.2-0.2,0.6-0.4,0.5c-0.3-0.3-1,0.3-1.1-0.4
		v4.2c0.4-0.1,0.7-0.5,1.2-0.3c0.4,0.1,0.7,0.3,0.6,0.7c-0.1,0.4,0.3,1.2-0.6,1.1c-0.4,0-0.8,0.1-1.1-0.1v1.7c1,0.3,2.1,0,3.1,0.1
		c0.2,0,0.5-0.1,0.7,0.1c-0.4,0.2-0.9,0.2-1,0.7c-0.3,0.1-0.6,0.3-0.6,0.8c-0.4-0.4,0-0.5,0.2-0.7c-0.1-0.2,0.1-0.6-0.3-0.6
		c-0.3,0-0.3,0.3-0.4,0.5c-0.1,0.2-0.2,0.2-0.3,0.3c-0.2,0.3-0.4,0.5-0.9,0.4c-0.2,0-0.4,0.1-0.5,0.3v7c1.3-0.2,2.5-0.2,3.8-0.5
		c1.1-0.3,2.5-0.2,3.8-0.1c0.1,0,0.3,0,0.4,0c0.6,0,1.2,0,1.7-0.2c0.6-0.3,0.2-1,0.4-1.5c0.1-0.5,0.2-1.1,0.4-1.6
		c0.1-0.2-0.1-0.5,0.3-0.5c0.4,0,0.8-0.2,1.1,0.2c0.4,0.4,0.1,0.6-0.2,0.9c0.8,0.2,1,0.9,0.6,1.8c0.1,0.5,0.4,0.6,0.8,0.6
		c0.9,0,1.7,0.1,2.6,0.1c2.2,0,4.5-0.1,6.7-0.2c1.2,0,1.3-0.1,1-1.3c0,0-0.1-0.1-0.1-0.1c0.5-1-0.6-0.7-0.9-1
		c-0.3,0-0.3-0.3-0.5-0.4c0.1,0.5-0.3,0.7-0.6,0.9c-0.5,0.5-1.4,0.1-1.4-0.6c0-0.5-0.1-0.9,0.1-1.4c0.2-3.6,0.7-7.2,0.8-10.8
		c0-1.8,0.3-3.6,0.5-5.3c0.1-0.6-0.1-1.2,0.2-1.8c0.1,0-0.1,0.4,0.2,0.2c0.8-0.3,1-0.2,1.2,0.6c0.1,0.4,0.3,0.4,0.6,0.4
		c0.9,0.1,1.8,0,2.6,0.2c1.3,0.3,2.5,0.2,3.8,0.4c2.5,0.3,5.1,0.5,7.7,0.7c2,0.2,4.1,0.5,6.2,0.5c0.5,0,1,0.4,1.6,0.1
		c0.3,0.6,1,0.5,1.6,0.7c0.3,0.1,0.2,0.4,0.1,0.5c-0.7,2.8-0.3,5.6-0.3,8.4c0,0.2,0,0.4,0,0.6c0,0.5-0.2,0.9-0.8,0.8
		c-0.6-0.1-1.2,0.2-1.8,0.3c0.2,0,0.4,0.1,0.4,0.3c0.1,0.4,0.1,1-0.2,1.2c-0.4,0.4-0.8,0.2-0.9-0.5c-0.1,0.6-0.4,0.8-0.8,0.7
		c-1.1-0.2-1.5,0.4-1.8,1.2c-0.2,0.5-0.4,0.6-0.7,0.1c-0.2-0.3-0.5-0.4-0.8-0.1c-0.1,0.1-0.3,0.2-0.5,0.3c-1.7,0.4-3.5,0.8-5.2,1.2
		c-0.1,0-0.1,0-0.2,0c-0.4,0.1-0.8,0.2-1.2,0.2c-0.4,0.1-0.8,0-0.7,0.6c0,0.1-0.3,0.4-0.6,0.4c-1.3,0.1-2.5,0.8-3.7,1.4
		c4.2-0.6,8.5-0.8,12.7-0.9c1.9-0.1,3.7-0.3,5.6-0.1c0.3,0,0.5,0.1,0.7,0.2c0.2,0.1,0.5,0.1,0.1,0.5c-0.3,0.3,0.4,0,0.2,0.4
		c-0.4,0.2-0.9,0.1-1.4,0.2c0.4,0.3,0.9,0.3,1,0.9c0.1,0,0.1,0.1,0.2,0.1c0.3,0,0.6,0,0.9,0c3.7,0.1,7.4,0,11.1,0
		C59,98.8,59.6,96.7,60.2,94.5z M39.6,18c-0.1,0.2-0.4,0.1-0.5,0.1c-0.2,0-0.5,0-0.7,0v0c-0.4,0-0.8,0-1.1,0c-0.2,0-0.3-0.2-0.3-0.4
		c0.1-0.3,0.4-0.3,0.5-0.2c0.5,0.4,1,0.3,1.5,0.1c0.2-0.1,0.4-0.1,0.6,0.1C39.5,17.8,39.6,17.9,39.6,18z M47,17.8
		C47,17.9,47,17.9,47,17.8c0,0.1,0,0.1,0,0.1C47,18,47,17.9,47,17.8C47,17.9,47,17.9,47,17.8z M9.9,90.4c0.6,0.3,1.4,0.3,2.1,0.2
		c0.5-0.1,1.2,0.1,1.6-0.1c0.4-0.2,0.1-1,0.6-1.5c-0.1,0.9-0.2,1.5-0.3,2.2c0,0.3-0.3,0.1-0.4,0.1c-0.6,0-1.3-0.4-1.8,0.4
		c-0.2,0.2-1.8-0.1-2.1-0.3C9,91,9.2,90.7,9.7,90.5c-0.5,0-1.1-0.1-1.6-0.1c-0.5,0-1.1,0-1.6-0.1C7.7,90.2,8.8,89.9,9.9,90.4z
		 M12,91.8C12.1,91.9,12,91.9,12,91.8C12,91.9,12,91.8,12,91.8C12,91.8,12,91.8,12,91.8C12,91.8,12,91.8,12,91.8z M6.2,94
		c-0.3,0.1-0.4,0-0.4-0.1C6,93.6,6,93.2,6.4,93.2c0.3,0,0.2,0.3,0.2,0.5C6.7,94.2,6.3,94,6.2,94z M12.6,96.3
		C12.6,96.3,12.6,96.3,12.6,96.3C12.6,96.3,12.6,96.3,12.6,96.3C12.6,96.3,12.6,96.3,12.6,96.3C12.6,96.3,12.5,96.3,12.6,96.3
		c-0.1-0.1-0.1-0.1-0.2-0.1l0.1,0C12.6,96.2,12.6,96.2,12.6,96.3C12.6,96.2,12.6,96.2,12.6,96.3C12.6,96.3,12.6,96.3,12.6,96.3z
		 M14.9,94.8c-0.1,0.3-0.2,0.8-0.8,0.6c-0.2-0.1-0.3,0.1-0.4,0.3c0,0.1,0,0.2,0,0.4c0-0.1,0-0.2,0-0.4c0-0.2,0-0.4-0.3-0.5
		c-0.4-0.1-0.4,0.3-0.6,0.6c0.1-0.9,0.6-1.6,1.1-2.3c0.2,0.1,0.3,0.2,0.5,0.3C14.8,94,15,94.4,14.9,94.8z M13.8,93
		c-0.6-0.1-1,0-1.4,0.5c-0.2,0.3-0.5,0.5-0.9,0.5c-0.4,0-0.7,0.5-0.9,0.5c-0.7,0.1-1.4,0.2-2,0c0,0-0.1,0-0.2,0
		c-0.2,0-0.4-0.1-0.5-0.2c-0.2-0.2-0.6,0-0.6-0.4c0-0.3,0.3-0.4,0.5-0.5c0-0.3,0-0.6,0.4-0.6c0.5,0,0.9,0,1.4,0.1
		c-0.6,0.2-1.3,0-1.8,0.5c0.3,0.3,2.2,0.5,2.6,0.3c0.2-0.1,0.2-0.2,0.2-0.4c0-0.2,0-0.4,0.2-0.5c0.5-0.1,0.9-0.3,0.9-0.8
		c0.6,0.3,0.9-0.5,1.5-0.4c0.6,0.2,0.8-0.1,0.8-0.7c0-0.6,0.1-1.3,0.2-1.9c0.2,0.1,0.3,0.2,0.3,0.4c-0.2,0.8,0.3,1.3,0.5,2
		C15.4,92.8,15.2,93.2,13.8,93z M30.3,70.4c-0.1,0.2,0,0.4-0.2,0.6C30.1,70.7,30.3,70.6,30.3,70.4c0,0,0-0.1,0-0.1
		C30.4,70.3,30.3,70.4,30.3,70.4z M30.7,69.4C30.6,69.4,30.6,69.4,30.7,69.4c0.1-0.5,0.3-1,0.4-1.5c0,0,0.1,0,0.1,0.1
		C31,68.5,30.8,68.9,30.7,69.4z M31.6,66.7C31.6,66.7,31.5,66.6,31.6,66.7c0.2-1,0.6-2,0.9-3c0,0,0.1,0,0.1,0
		C32.2,64.7,31.9,65.7,31.6,66.7z M32.7,63.2L32.7,63.2L32.7,63.2L32.7,63.2z M34.2,60.5c0,0.5-0.2,0.9-0.4,1.4
		c-0.1,0.3-0.2,0.1-0.3,0c-0.4,0.1-0.3,0.5-0.6,0.8c0.1-0.5,0.2-0.9,0.4-1.3c0-0.2,0-0.3,0.2-0.5c0-0.2,0-0.3,0.2-0.5
		c0-0.3,0.1-0.5,0.2-0.8c0.1,0.3,0.1,0.6,0.1,0.8C34,60.5,34.1,60.5,34.2,60.5c0-0.1,0-0.1,0-0.1C34.3,60.4,34.3,60.4,34.2,60.5
		C34.3,60.4,34.2,60.5,34.2,60.5z M43.4,74.7c0,0-0.1,0-0.1,0v-2c0,0,0.1,0,0.1,0V74.7z M46.4,78.2C46.3,78.2,46.3,78.2,46.4,78.2
		c-0.1-0.1-0.1-0.1-0.1-0.2c0,0,0.1,0.1,0.1,0.1C46.4,78.1,46.4,78.1,46.4,78.2z M46.5,76.9C46.5,76.9,46.5,76.9,46.5,76.9l-0.1-1
		c0,0,0.1,0,0.1,0V76.9z M48.4,75.9c0,0,0.1,0,0.1,0v2.1h-0.1V75.9z M48.1,82.8L48.1,82.8l0.1,2.1c0,0-0.1,0-0.1,0V82.8z M48,86.1
		C48,86.1,48,86.1,48,86.1l0.1,2.2c0,0-0.1,0-0.1,0V86.1z M47.1,100.5c0.7-0.3,1.4-0.3,2.1,0C48.5,100.8,47.8,100.8,47.1,100.5z
		 M51.5,85.1c-0.1-0.7-0.2-1.5,0.1-2.2C51.7,83.6,51.4,84.3,51.5,85.1z M51.7,81.6c-0.2-0.7-0.2-1.4,0-2.1V81.6z M51.8,78.2
		L51.8,78.2l-0.1-1.9c0,0,0.1,0,0.1,0V78.2z M51.9,74.7c-0.2-0.7-0.1-1.4,0-2.1V74.7z"/>
	<path class="st3" d="M57.5,103c-0.6,0-1.1-0.1-1.7-0.1c-0.3,0-0.6-0.1-0.9-0.5c1.1,0.1,2-0.2,3-0.4c0.1-0.4,0.3-0.7,0.4-1.1
		c-3.7,0-7.4,0.1-11.1,0l0,0c-0.3,0-0.6,0-0.9,0l0,0l0,0l0,0c-0.1,0-0.1-0.1-0.2-0.1c-1,0.2-2,0.1-3,0.1c-0.7,0.2-1.3,0-2,0
		c-0.4-0.1-0.9-0.1-1.3-0.2c-0.2,0-0.5-0.2-0.4-0.5c0-0.2,0.3-0.2,0.5-0.2c0.2,0,0.5,0,0.7,0c0.3,0,0.4-0.2,0.4-0.4
		c0.1-0.3-0.2-0.3-0.4-0.4c-0.3-0.2-0.7-0.1-0.9-0.4c-4.2,0.1-8.5,0.3-12.7,0.9c1.2-0.5,2.3-1.2,3.7-1.4c0.3,0,0.6-0.3,0.6-0.4
		c-0.1-0.6,0.4-0.6,0.7-0.6c0.4-0.1,0.8-0.2,1.2-0.2c0.8-0.9,1.8-1.5,3-1.6c0.5-0.1,0.9-0.5,1.4-0.2c0,0,0.2-0.1,0.2-0.1
		c-0.3-0.9,0.5-0.7,0.9-0.8c1.6-0.6,3.3-1,4.9-1.5c0.8,0,1.5-0.4,2.2-0.3c0.6,0.1,0.8-0.3,0.8-0.8c0-0.2,0-0.4,0-0.6
		c0-2.8-0.4-5.6,0.3-8.4c0-0.2,0.1-0.5-0.1-0.5c-0.6-0.1-1.2,0-1.6-0.7c-0.5,0.3-1-0.1-1.6-0.1c-2.1,0-4.1-0.3-6.2-0.5
		c-2.6-0.2-5.1-0.5-7.7-0.7c-1.3-0.1-2.5-0.1-3.8-0.4c-0.9-0.2-1.8-0.1-2.6-0.2c-0.2,0-0.5,0-0.6-0.4c-0.1-0.8-0.4-0.9-1.2-0.6
		c-0.4,0.2-0.1-0.2-0.2-0.2c-0.3,0.6-0.1,1.2-0.2,1.8c-0.2,1.8-0.5,3.6-0.5,5.3c-0.1,3.6-0.6,7.2-0.8,10.8c0.2,0.1,0.1,0.5,0.4,0.6
		c0.3-0.3,0.3-0.7,0.3-1.1c0.2-1.9,0.4-3.7,0.6-5.6c0-0.3,0.1-0.5,0.2-0.8c0,0,0,0,0,0c0,0,0,0,0,0V88c0.2,0.4,0.1,0.8,0,1.2v0
		c0,0,0,0,0,0c0,2.2-0.4,4.4-0.5,6.6c0,0.2,0,0.4,0,0.5c0,0.3,0.1,0.7,0.5,0.7c0.4,0,0.3-0.4,0.3-0.6c0-0.2,0-0.4,0-0.6
		c0.1,0.3,0.2,0.5,0.3,0.8c0.4-0.3,0.1-0.8,0.4-1.1c0.5-0.4-0.8-1,0.2-1.5c0.6-0.3,0.2-1,0-1.5c0,0,0,0,0,0l0-0.1l0,0c0,0,0,0,0,0
		c0.3,0.2,0.6,0.5,0.5,0.8c-0.2,1.4,0.2,2.9-0.6,4.3c0.3,0.3,1.4,0,0.9,1c0,0,0.1,0.1,0.1,0.1c0.3,1.2,0.3,1.3-1,1.3
		c-2.2,0.1-4.5,0.1-6.7,0.2c-0.9,0-1.7,0-2.6-0.1c-0.4,0-0.7-0.2-0.8-0.6c-0.4-0.6-0.4-1.2-0.6-1.8c0.2-0.3,0.6-0.5,0.2-0.9
		c-0.3-0.3-0.7-0.2-1.1-0.2c-0.3,0-0.2,0.3-0.3,0.5c-0.2,0.5-0.2,1-0.4,1.6c-0.1,0.5,0.3,1.2-0.4,1.5c-0.5,0.2-1.1,0.3-1.7,0.2
		c-0.1,0-0.3,0-0.4,0c-1.3-0.1-2.6-0.2-3.8,0.1C2.6,101,1.3,101,0,101.2c0,0.7,0,1.5,0,2.2c0,0.6,0.1,0.7,0.7,0.7
		c18.8,0,37.6,0,56.3,0C57.2,103.8,57.3,103.4,57.5,103z M35.2,81.3h1.3c0,0,0,0,0,0c-0.3,0-0.7,0-1,0
		C35.5,81.4,35.4,81.3,35.2,81.3h-0.5C34.9,81.1,35.1,81.2,35.2,81.3z M21.7,82.2C21.7,82.2,21.6,82.2,21.7,82.2
		C21.6,82.2,21.6,82.2,21.7,82.2c0.1-0.3,0.3-0.6,0.7-0.6C22.2,81.8,21.9,82,21.7,82.2z M23.2,80.2c-0.3-0.1-0.7,0-1.2-0.2
		c0.5-0.3,0.9-0.3,1.3-0.3c0.1,0,0.3-0.1,0.2,0.1C23.5,80,23.8,80.4,23.2,80.2z M15.9,101.8c0.6-0.6,5.8-1.2,8.2-1.1
		c0.8-0.2,1.6-0.3,2.4-0.1c0.1-0.1,0.2-0.2,0.2-0.3c-0.1-0.4,0.2-0.4,0.4-0.3c2.9,0.7,5.9,0.8,8.8,0.9c2.5,0.1,4.9,0.6,7.4,0.9
		c0.1,0,0.1,0.1,0.1,0.1c0.3,0.1,0.6,0.1,0.9,0.2l0,0l0,0c0.9-0.1,1.8,0.1,2.7,0.2c1.1,0.2,2.2-0.1,3.3,0.2
		C38.8,103.3,27.3,102.9,15.9,101.8z M48.5,103.1c-0.3,0-0.7,0-1,0C47.8,103.1,48.2,103.1,48.5,103.1c0.9,0,1.9-0.1,2.9,0
		C50.4,103.4,49.4,103.2,48.5,103.1z"/>
	<path class="st4" d="M31.3,35c2.9-0.1,5.8-0.2,8.6-0.4c0.7,0,0.9,0.1,0.6,0.9c-0.8,2.3-1.7,4.6-2.5,6.9c-0.9,2.6-1.8,5.3-2.7,8
		c-0.2,0.7-0.6,1-1.3,1c-2.4,0-4.8,0.1-7.3,0.1c-1.1,0-1.1,0-1-1.1c0.4-3.8,0.9-7.7,1.3-11.5c0.1-1,0.3-2,0.3-3
		c0-0.6,0.3-0.8,0.9-0.8C29.3,35.1,30.3,35.1,31.3,35C31.3,35.1,31.3,35,31.3,35z"/>
	<path class="st4" d="M21.7,35.4c1.2,0,2.3-0.1,3.5-0.2c0.7-0.1,0.9,0.2,0.8,0.9c-0.3,2.1-0.5,4.2-0.8,6.3c-0.3,2.7-0.6,5.3-0.9,8
		c-0.1,1.1-0.1,1.1-1.3,1.1c-2.3,0-4.5,0.1-6.8,0.1c-0.5,0-0.8-0.1-0.5-0.7c1-2.7,2.1-5.3,3.1-8C19.8,40.4,20.7,37.9,21.7,35.4
		L21.7,35.4z"/>
	<path class="st5" d="M40,57.8c0.2,0.5-0.5,0.6-0.6,1.1c-0.3,1.5-0.7,2.9-1,4.4c-0.1,0.4-0.3,0.8-0.5,1.2c0.3-1.6,0.7-3.3,1-4.9
		c0-0.2,0.1-0.5-0.1-0.7c-0.1,0.2-0.2,0.4-0.1,0.6c-0.6,0.6-0.9,1.3-1.2,2.1l0,0c-0.3,0.1-0.1,0.2,0,0.3l0,0c0,0.3-0.2,0.6-0.3,0.9
		c-0.1,0.5-0.2-0.1-0.4,0c0.1,0.1,0.1,0.1,0.2,0c0,0,0-0.1,0-0.1c0,0-0.1,0.1-0.1,0.1c-0.2,0.5-0.5,1-0.7,1.4c0,0-0.1,0-0.1-0.1
		c0.2-0.5,0.3-1,0.6-1.5c0.9-2.2,1.9-4.3,2.8-6.5c0.1-0.3,0.2-0.6,0.3-0.9l0,0c0.2-0.2,0.3-0.4,0.3-0.7c1.8-7.7,3.6-15.4,5.4-23.1
		c0.4-1.7,0.8-3.4,1.1-5.1c0.3-1.4,0.7-2.8,1.1-4.1c0.2-0.5,0.4-1.1,0.2-1.7c-0.7,1.9-1.3,3.8-2,5.8c-0.2,0-0.3-0.1-0.5-0.1
		c0.5-2.5,1.5-5,2.4-7.4c0.3-0.7,0.3-1.5,1.1-1.9c0.9,1.2,1.7,2.5,2.1,4l0,0c-0.1,0-0.1,0-0.2,0c0-0.1,0-0.2-0.2-0.3
		c0-0.1,0-0.2-0.2-0.3c0-0.1,0-0.2-0.2-0.3c0-0.1,0-0.3-0.1-0.3c0-0.1,0-0.2-0.1-0.3c0,0-0.1-0.1-0.1-0.1c-0.1,0.1,0,0.1,0,0.2
		c0,0.1,0,0.2,0.2,0.3c0,0.1,0,0.2,0.1,0.3c0,0.1,0,0.2,0.2,0.3c0,0.1,0,0.2,0.1,0.3c0,0.1,0,0.2,0.2,0.3c0,0.1,0,0.3,0.2,0.3l0,0
		c0,0.1,0,0.3,0.1,0.3l0,0c0,0.1,0,0.2,0.1,0.3l0,0c0,0.1,0,0.3,0.2,0.3l0,0c0,0.1,0,0.1,0.1,0.2c0-0.1,0.1-0.1,0.1-0.2l0,0
		c0.8,1,1,2.3,1.7,3.3c0.6,0.9,0.2,1.6,0,2.4c-0.7,2.2-1.5,4.4-2.3,6.8c-0.1-0.5,0.1-0.8,0.1-1.1c0-0.2,0-0.4-0.1-0.6
		c0.3,0.1,0.3-0.2,0.4-0.3c0.5-1.5,1.1-3,1.4-4.6C53,28.1,53.1,28,53,28c-0.1-0.1-0.1,0.1-0.1,0.2c-0.4,0.1-0.4,0.5-0.5,0.7
		c0,0.1,0,0.3-0.1,0.4l0,0c-0.2,0-0.2,0.2-0.2,0.3l0,0c-0.7,1.2-1.2,2.6-1.8,3.9c-0.2,0-0.4,0.1-0.5,0.3c-0.9,2-1.8,3.9-2.6,5.8
		c-0.1,0.2-0.3,0.3-0.2,0.5c0.2-0.1,0.3-0.3,0.3-0.5c0.1,0,0.2,0,0.3,0c0.2,0.3,0.5,0.6,0.6,0.9c0,0.4,0,0.8-0.1,1.2
		c-0.5,0.1-0.6-0.3-0.8-0.6c-0.2-0.3-0.4-0.5-0.6,0c-0.2,0.3-1.2,2.3-1.3,2.7l0,0c0.2,0.3-0.1,0.6-0.2,0.8c-0.6,0.3-0.9,1-0.7,1.6
		c-0.1,0.2-0.1,0.3-0.2,0.5c-0.3-0.1-0.4,0.1-0.5,0.3c-0.8,1.8-1.6,3.6-2.4,5.5c-0.1,0.1-0.1,0.3-0.2,0.4l0,0
		c-0.2,0.4-0.3,0.8-0.5,1.1c-0.2,0.3-0.1,0.4,0.2,0.6c0.8,0.6,1.6,1.2,2.3,1.9c-0.1,0.4-0.2,0.9-0.3,1.3c-0.8-0.1-1.1-0.7-1.7-1.1
		c-0.2-0.1-0.3-0.2-0.5-0.4c-0.2-0.2-0.5-0.3-0.7-0.2c-0.2,0.1-0.2,0.5-0.2,0.7C39.9,57.3,40.2,57.5,40,57.8c-0.1,0-0.2-0.1-0.3,0
		c0,0,0,0.1,0,0.1C39.8,58,39.9,57.9,40,57.8z M49.8,18.9C49.8,18.9,49.8,18.8,49.8,18.9C49.8,18.9,49.8,18.9,49.8,18.9
		c0,0.1,0,0.1,0.1,0.2c0,0,0.1,0,0.1,0C49.9,19,49.9,18.9,49.8,18.9z M49.4,18c0,0,0-0.2-0.1-0.1C49.3,17.9,49.3,17.9,49.4,18
		c0,0.1,0,0.3,0.1,0.3c0,0.1,0,0.1,0.1,0.1c0-0.1,0-0.1-0.1-0.2C49.5,18.1,49.5,18,49.4,18z M53.2,27.4
		C53.2,27.4,53.2,27.3,53.2,27.4C53.2,27.3,53.2,27.4,53.2,27.4c0,0-0.1,0-0.1,0.1c0,0,0.1,0,0.1,0.1C53.2,27.5,53.2,27.4,53.2,27.4
		z M48.2,22.4L48.2,22.4L48.2,22.4c-0.3,0-0.2,0.3-0.3,0.5c-0.2,0.5-0.3,1.1,0,1.6c0,0.1-0.1,0.2-0.1,0.2c-0.1,0-0.3,0-0.3,0.1
		c0,0.1,0.1,0.2,0.2,0.2c0,0.2,0,0.3-0.1,0.5c-0.1,0-0.2-0.1-0.2,0c0,0.1,0.1,0.2,0.1,0.3c0,0.2,0,0.3,0,0.5l0,0
		c-0.2,0.2-0.1,0.4-0.1,0.7c0.1,0.5,0.6,0.8,0.5,1.3c-0.1-0.2-0.2-0.4-0.4-0.5c-0.1-0.1-0.1-0.4-0.5-0.3c-0.4,0-0.3,0.3-0.4,0.5
		c-0.2,0.6-0.3,1.2-0.4,1.8c-0.1,0.1-0.1,0.3-0.1,0.5c0,0.1-0.1,0.2-0.1,0.3c0,0.2,0,0.4,0.1,0.6c-0.4,0.4-0.3,1-0.4,1.5
		c-0.2,0.2-0.1,0.4-0.2,0.6c-0.1,0.3-0.1,0.6-0.2,0.9c0,0.5-0.4,1-0.1,1.6c-0.4-0.1-0.4,0.2-0.4,0.5c-0.4,1.7-0.9,3.5-1.1,5.3
		c-0.4,0.6-0.6,1.3-0.4,2.1c-0.1,0-0.3,0-0.3,0.1c-0.1,0.7-0.4,1.3-0.4,2l0,0c-0.2,0.1-0.2,0.2,0,0.3c0.1,0,0.1,0,0.1,0
		c0,0.1,0,0.2,0,0.3c-0.2,0-0.4,0-0.4,0.3c-0.1,0.6-0.3,1.2-0.2,1.9c0,0.1-0.1,0.1-0.1,0.2l0,0c0,0.1,0.1,0.3,0.1,0.4L42,49
		c-0.1-0.1-0.2-0.1-0.3,0c-0.3,1.1-0.5,2.2-0.8,3.3c0.8-1.1,1.3-2.3,1.8-3.5c1.3-2.9,2.7-5.8,3.9-8.8c0.1-0.1,0.1-0.2,0.1-0.2
		c-0.1-0.1-0.1,0-0.2,0.1c-0.9-0.5-1.3-1.4-1.9-2.1c-0.2-0.3,0.1-1,0.3-1.6c0.8,1,1.5,2,2.2,2.9c0.9-2,1.8-4,2.7-6
		c0.3-0.6,0.2-1.2-0.2-1.8c-0.6-0.9-1.3-1.9-1.7-2.9c0.8,0.7,1.1,1.8,1.8,2.7c0.1,0.2,0.1,0.6,0.5,0.5c0.2,0,0.4-0.3,0.5-0.5
		c0.6-1.4,1.3-2.7,1.9-4.1c0.1-0.3,0.1-0.5,0-0.8c-1.1-2.2-2.3-4.3-3.4-6.5c-0.1-0.2-0.2-0.3-0.3-0.7c-0.3,1.1-0.5,2-0.7,2.9
		C48.2,22,48,22.3,48.2,22.4L48.2,22.4z M40.5,55.2c0-0.1,0-0.1,0-0.2c0,0-0.1,0-0.1,0C40.4,55,40.4,55.1,40.5,55.2
		C40.4,55.1,40.4,55.2,40.5,55.2z M48.3,20.3c0,0-0.1-0.1-0.1-0.1c0,0-0.1,0.1-0.1,0.1c0,0,0,0.1,0.1,0.1
		C48.2,20.3,48.2,20.3,48.3,20.3z"/>
	<path class="st4" d="M45.3,44.7c0.1-0.3,0.3-0.5,0.2-0.8c0.1,0,0.1,0.1,0.1,0c0,0-0.1,0-0.1,0c0.1-0.4,1.1-2.4,1.3-2.7
		c0.3-0.5,0.4-0.3,0.6,0c0.2,0.3,0.3,0.7,0.8,0.6c0.1,0.5-0.2,0.9-0.3,1.4c-1.3,4.2-2.7,8.3-4,12.4c-0.1,0.4-0.1,0.8-0.6,1
		c-0.7-0.8-1.5-1.3-2.3-1.9c-0.2-0.2-0.3-0.3-0.2-0.6c0.2-0.4,0.3-0.7,0.5-1.1c0,0,0.1,0,0.1,0c0,0,0,0,0,0c0.1-0.1,0.1-0.3,0.2-0.4
		c0.3,0.1,0.4-0.1,0.5-0.4c0.8-1.8,1.6-3.6,2.4-5.4c0.1-0.2,0.1-0.3,0.2-0.5C44.9,45.8,45.1,45.3,45.3,44.7z"/>
	<path class="st4" d="M22.3,33.9c0.6-1.6,1.2-3.2,1.8-4.7c1.1-2.8,2.2-5.6,3.3-8.5c0.1-0.2,0.1-0.4,0.4-0.5c0.3,0.9,0,1.9-0.1,2.8
		c-0.4,3.3-0.9,6.7-1.3,10c-0.1,0.7-0.4,0.9-1,0.9C24.3,33.8,23.3,33.9,22.3,33.9L22.3,33.9z"/>
	<path class="st4" d="M51.1,33.1c0,0.2,0,0.4,0.1,0.6c-0.2,0-0.3,0.2-0.4,0.3c-0.5,2-1.3,3.9-1.9,5.9c-0.1,0.3,0,0.8-0.6,0.7
		c-0.1-0.4-0.4-0.6-0.6-0.9c0-0.4,0.2-0.7,0.3-1.1c0.8-1.7,1.6-3.5,2.4-5.2c0.6-1.3,1.1-2.6,1.8-3.9C52.1,30.8,51.4,31.9,51.1,33.1z
		"/>
	<path class="st4" d="M13.3,53.3c0.2-0.6,0.4-1.1,0.7-1.7c0-0.1,0.1-0.3,0.1-0.4l0,0C14.4,51.9,14,53.2,13.3,53.3z"/>
	<path class="st4" d="M20,38.2c0.2-0.9,0.5-1.8,1-2.6C20.7,36.5,20.3,37.3,20,38.2L20,38.2z"/>
	<path class="st5" d="M21.7,35.4L21.7,35.4c0-0.6,0.2-1.1,0.6-1.5c0,0,0,0,0,0C22.2,34.4,22,34.9,21.7,35.4z"/>
	<path class="st5" d="M43.9,57.1c0,0.5-0.1,1-0.5,1.4C43.5,58,43.7,57.5,43.9,57.1L43.9,57.1z"/>
	<path class="st5" d="M42.3,62.4c0-0.4,0.1-0.8,0.4-1.3C42.8,61.8,42.6,62.1,42.3,62.4z"/>
	<path class="st5" d="M51.1,21.1c0.3,0.3,0.5,0.8,0.6,1.2l0,0c-0.1,0-0.1,0-0.2,0l0,0c0-0.1,0-0.2-0.2-0.3l0,0c0-0.1,0-0.2-0.1-0.3
		l0,0c0-0.1,0-0.2-0.1-0.3l0,0C51.1,21.3,51.1,21.2,51.1,21.1L51.1,21.1z"/>
	<path class="st4" d="M26.8,20c0,0.3-0.1,0.5-0.4,0.9C26.3,20.4,26.2,20.1,26.8,20L26.8,20z"/>
	<path class="st5" d="M44,57.1c0-0.3,0-0.6,0.2-0.8C44.2,56.6,44.1,56.9,44,57.1L44,57.1z"/>
	<path class="st4" d="M17.5,44.6c0-0.4,0.1-0.8,0.5-1l0,0C17.8,43.8,17.8,44.3,17.5,44.6L17.5,44.6z"/>
	<path class="st4" d="M18,43.5c0-0.4-0.1-0.7,0.3-1l0,0C18.2,42.9,18.1,43.2,18,43.5C18,43.5,18,43.5,18,43.5z"/>
	<path class="st4" d="M26.1,21.3c0.1,0.1,0.1,0.1,0.1,0.2c0,0,0,0.1-0.1,0.1c-0.1,0-0.1,0-0.1-0.1C26,21.4,26.1,21.4,26.1,21.3z"/>
	<path class="st4" d="M17.2,45.3c0-0.3,0.1-0.6,0.3-0.8l0,0C17.4,44.8,17.4,45.1,17.2,45.3L17.2,45.3z"/>
	<path class="st4" d="M16.1,48.3c0-0.3,0.1-0.6,0.4-0.7l0,0C16.3,47.8,16.2,48,16.1,48.3L16.1,48.3z"/>
	<path class="st4" d="M14.7,51.8c0-0.2,0-0.4,0.2-0.6C15,51.5,14.9,51.7,14.7,51.8L14.7,51.8z"/>
	<path class="st4" d="M16.5,47.6c0-0.2-0.1-0.5,0.1-0.7l0,0C16.5,47.1,16.5,47.3,16.5,47.6C16.5,47.5,16.5,47.6,16.5,47.6z"/>
	<path class="st4" d="M18.6,41.8c0-0.1,0-0.1,0-0.2c0,0,0,0,0,0.1C18.6,41.7,18.6,41.7,18.6,41.8L18.6,41.8z"/>
	<path class="st4" d="M17.2,45.3c0,0.2,0,0.3-0.2,0.5l0,0C17,45.6,17,45.5,17.2,45.3L17.2,45.3z"/>
	<path class="st4" d="M14.1,53.5c0,0.2,0,0.3-0.2,0.4l0,0C13.9,53.8,13.9,53.7,14.1,53.5C14.1,53.6,14.1,53.5,14.1,53.5z"/>
	<path class="st4" d="M14.2,53.1c0,0.2,0,0.3-0.1,0.5c0,0,0,0,0,0C14.1,53.4,14.1,53.2,14.2,53.1L14.2,53.1z"/>
	<path class="st4" d="M14.7,51.8c0,0.2-0.1,0.3-0.2,0.4l0,0C14.5,52.1,14.5,51.9,14.7,51.8L14.7,51.8z"/>
	<path class="st4" d="M15.9,48.6c0,0.1,0,0.1-0.1,0.2C15.8,48.7,15.9,48.7,15.9,48.6L15.9,48.6z"/>
	<path class="st4" d="M14.6,52.3c0,0,0,0.1,0,0.1C14.4,52.3,14.5,52.3,14.6,52.3L14.6,52.3z"/>
	<path class="st4" d="M17,45.8c0,0,0,0.1-0.1,0.1C17,45.9,17,45.9,17,45.8C17,45.8,17,45.8,17,45.8L17,45.8z"/>
	<path class="st4" d="M16.7,46.6C16.7,46.5,16.8,46.5,16.7,46.6C16.8,46.5,16.8,46.5,16.7,46.6C16.8,46.5,16.7,46.6,16.7,46.6
		L16.7,46.6z"/>
	<path class="st4" d="M16.6,46.9c0-0.1,0-0.2,0.2-0.3l0,0C16.7,46.7,16.6,46.8,16.6,46.9L16.6,46.9z"/>
	<path class="st4" d="M16.1,48.3c-0.1,0.1-0.1,0.2-0.2,0.3l0,0C16,48.5,16.1,48.4,16.1,48.3L16.1,48.3z"/>
	<path class="st4" d="M20,38.2C19.9,38.2,19.9,38.3,20,38.2C19.9,38.3,19.9,38.3,20,38.2C19.9,38.2,20,38.2,20,38.2L20,38.2z"/>
	<path class="st4" d="M18.6,41.8C18.6,41.8,18.5,41.8,18.6,41.8C18.5,41.8,18.5,41.8,18.6,41.8C18.5,41.8,18.6,41.8,18.6,41.8
		L18.6,41.8z"/>
	<path class="st4" d="M18.3,42.6C18.3,42.6,18.3,42.6,18.3,42.6L18.3,42.6z"/>
	<path class="st4" d="M14.3,53.1c0,0,0-0.1,0-0.1C14.4,53,14.3,53,14.3,53.1L14.3,53.1z"/>
	<path class="st4" d="M13.9,54c0,0.1,0,0.2-0.2,0.3l0,0C13.8,54.2,13.8,54.1,13.9,54L13.9,54z"/>
	<polygon class="st5" points="42.8,60.6 42.8,60.6 42.8,60.7 	"/>
	<path class="st5" d="M39.8,55.2c-0.2,0.3-0.5,0.3-0.8,0c-0.6-0.5-1.3-1-1.9-1.5c-0.4-0.3-0.5-0.3-0.7,0.2c-0.6,1.8-1.2,3.6-1.8,5.4
		c-0.1,0.2-0.1,0.3-0.3,0.5c-0.3-0.5-0.3-1,0-1.4c0.9-1.6,1.2-3.4,1.6-5.1c0.3-1.4,0.8-2.7,1.4-4c0.6-1.1,0.9-2.4,1.2-3.7
		c0.1-0.3,0.1-0.5,0.2-0.8c0.9-2.2,1.5-4.4,2.2-6.6c0.1-0.4,0.6-0.6,0.6-1c0.1-0.1,0.2-0.2,0.1-0.3c0,0-0.2,0-0.2,0
		c0.1-0.2,0.2-0.3,0.3-0.5c0.3,0.3,0.3,0.6,0.3,1c-1.4,4.2-2.9,8.4-4.3,12.6c-0.6,1.7-0.6,1.8,0.9,2.9
		C39.6,53.6,40.2,54.1,39.8,55.2L39.8,55.2z"/>
	<path class="st6" d="M33.3,96.9c0.8-0.9,1.8-1.5,3-1.6c0.5-0.1,0.9-0.5,1.4-0.2c0,0,0.2-0.1,0.2-0.1c-0.3-0.9,0.5-0.7,0.9-0.8
		c1.6-0.6,3.3-1,4.9-1.5c0.3-0.1,0.7-0.1,0.8,0.2c0.1,0.4,0.1,1-0.2,1.2c-0.4,0.4-0.8,0.2-0.9-0.5c-0.1,0.6-0.4,0.8-0.8,0.7
		c-1.1-0.2-1.5,0.4-1.8,1.2c-0.2,0.5-0.4,0.6-0.7,0.1c-0.2-0.3-0.5-0.4-0.8-0.1c-0.1,0.1-0.3,0.2-0.5,0.3c-1.7,0.4-3.5,0.8-5.2,1.2
		C33.4,96.9,33.3,96.9,33.3,96.9z"/>
	<path class="st6" d="M46,100.7c-1,0.2-2,0.1-3,0.1c-0.1-0.1-0.3-0.1-0.4-0.2c-0.4-0.4-1.3-0.3-1.6,0.2c-0.4-0.1-0.9-0.1-1.3-0.2
		c-0.2,0-0.5-0.2-0.4-0.5c0-0.2,0.3-0.2,0.5-0.2c0.2,0,0.5,0,0.7,0c0.3,0,0.4-0.2,0.4-0.4c0.1-0.3-0.2-0.3-0.4-0.4
		c-0.3-0.2-0.7-0.1-0.9-0.4c1.9-0.1,3.7-0.3,5.6-0.1c0.3,0,0.5,0.1,0.7,0.2c0.2,0.1,0.5,0.1,0.1,0.5c-0.3,0.3,0.4,0,0.2,0.4
		c-0.4,0.2-0.9,0.1-1.4,0.2C45.3,100.1,45.9,100.2,46,100.7z"/>
	<path class="st5" d="M7.9,94.3c-0.2-0.2-0.6,0-0.6-0.4c0-0.3,0.3-0.4,0.5-0.5l0,0c0.3,0.3,2.2,0.5,2.6,0.3c0.2-0.1,0.2-0.2,0.2-0.4
		c0-0.2,0-0.4,0.2-0.5c0.5-0.1,0.9-0.3,0.9-0.8c0.6,0.3,0.9-0.5,1.5-0.4c0.6,0.2,0.8-0.1,0.8-0.7c0-0.6,0.1-1.3,0.2-1.9
		c0.2,0.1,0.3,0.2,0.3,0.4c-0.2,0.8,0.3,1.3,0.5,2c0.4,1.3,0.2,1.7-1.2,1.5c-0.6-0.1-1,0-1.4,0.5c-0.2,0.3-0.5,0.5-0.9,0.5
		c-0.4,0-0.7,0.5-0.9,0.5c-0.7,0.1-1.4,0.2-2,0c0,0-0.1,0-0.2,0c0.6-0.3,1.3,0.1,1.9-0.3c-0.6-0.1-1.1-0.1-1.7-0.2
		C8.4,94,8.1,94,7.9,94.3z"/>
	<path class="st6" d="M8.1,71.8c-0.6,0.7-0.7,1.6-1.1,2.4c-0.4,0.8-0.7,1.7-1.1,2.7c-0.2-0.4-0.1-0.7,0-0.9c0.3-1.3,0.8-2.6,1.3-3.8
		c1.5-3.9,2.9-7.7,4.4-11.6c0.4-1.1,0.8-2.2,1.5-3.2l0,0c-0.4,1.5-1.1,3-1.6,4.5c-1.1,3.1-2.2,6.1-3.4,9.2C8.1,71.3,8,71.6,8.1,71.8
		L8.1,71.8z"/>
	<path class="st6" d="M19.9,96.2c0.2,0.1,0.1,0.5,0.4,0.6c0.3-0.3,0.3-0.7,0.3-1.1c0.2-1.9,0.4-3.7,0.6-5.6c0-0.3,0.1-0.5,0.2-0.8
		l0,0c0,2.2-0.4,4.4-0.5,6.6c0,0.2,0,0.4,0,0.5c0,0.3,0.1,0.7,0.5,0.7c0.4,0,0.3-0.4,0.3-0.6c0-0.2,0-0.4,0-0.6
		c0.1,0.3,0.2,0.5,0.3,0.8c0.4-0.3,0.1-0.8,0.4-1.1c0.5-0.4-0.8-1,0.2-1.5c0.6-0.3,0.1-1,0-1.6l0,0c0.3,0.2,0.6,0.5,0.5,0.8
		c-0.2,1.4,0.2,2.9-0.6,4.3c-0.3,0-0.3-0.3-0.5-0.4c0.1,0.5-0.3,0.7-0.6,0.9c-0.5,0.5-1.4,0.1-1.4-0.6
		C19.8,97.1,19.8,96.7,19.9,96.2z"/>
	<path class="st6" d="M42.1,37.4c0-0.4,0-0.7-0.3-1c0,0,0,0,0,0c0.2-0.1,0.4-0.2,0-0.4c0.1-0.3,0.1-0.5,0.3-0.7
		c0.1,0.2,0.1,0.3,0.2,0.5c0.2-0.4,0.3-0.6-0.2-0.7c0.3-1.2,0.8-2.4,1.3-3.5c0.6-1.3,0.7-2.7,1.3-3.9c0.2-0.5,0.5-0.9,0.8-1.4
		c0.2,0,0.3,0.1,0.5,0.1c-0.6,1.8-1.3,3.6-1.9,5.4c-0.3,0.7-0.6,1.4-0.7,2.2c-0.5,0.4-0.8,0.9-0.5,1.5C42.4,36,42.5,36.8,42.1,37.4z
		"/>
	<path class="st1" d="M61.9,85.7c-0.1,0.3,0.2,0.3,0.5,0.4c0.2-0.8,0.4-1.5,0.6-2.3c-0.2,0.1-0.4,0.2-0.6,0.3
		C61.5,84.5,62.1,85.2,61.9,85.7z"/>
	<path class="st1" d="M62,87.1c0,0.1,0.1,0.2,0.1,0.3c0.1-0.4,0.2-0.7,0.3-1.1C62,86.4,61.8,86.7,62,87.1z"/>
	<path class="st5" d="M9.7,90.5c-0.5,0-1.1-0.1-1.6-0.1c-0.5,0-1.1,0-1.6-0.1c1.1,0,2.2-0.4,3.4,0.2c0.6,0.3,1.4,0.3,2.1,0.2
		c0.5-0.1,1.2,0.1,1.6-0.1c0.4-0.2,0.1-1,0.6-1.5c-0.1,0.9-0.2,1.5-0.3,2.2c0,0.3-0.3,0.1-0.4,0.1c-0.6,0-1.3-0.4-1.8,0.4
		c-0.2,0.2-1.8-0.1-2.1-0.3C9,91,9.2,90.7,9.7,90.5z"/>
	<path class="st6" d="M40.1,70.3c0.5-0.2,1-0.2,1.5,0c0.5,0.2,1.2,0,1.7-0.1c0.8-0.2,1.7-0.1,2.5-0.1c-0.2,1.2-1,1.1-1.9,1.1
		c-0.9,0-1.7,0.2-2.6,0c-0.1,0-0.3,0-0.3-0.1c-0.2-0.7-1-0.6-1.5-0.9C39.8,70.2,40,70.2,40.1,70.3C40.2,70.3,40.1,70.3,40.1,70.3z"
		/>
	<path class="st6" d="M8,71.8c0.3-0.3,0.2-1,0.7-1.1c0.8-0.2,1.5-0.1,2.3,0.1c0.2,0,0.5,0.2,0.4,0.5c-0.1,0.4-0.1,1-0.7,1
		c-0.8,0.1-1.5,0-2.3,0C8.2,72.3,8.1,72.1,8,71.8L8,71.8z"/>
	<path class="st5" d="M13.6,96.1c0-0.3,0.2-0.7-0.2-0.8c-0.4-0.1-0.4,0.3-0.6,0.6c0.1-0.9,0.6-1.6,1.1-2.3c0.2,0.1,0.3,0.2,0.5,0.3
		c0.4,0.2,0.6,0.6,0.5,1c-0.1,0.3-0.2,0.8-0.8,0.6C13.7,95.3,13.6,95.8,13.6,96.1z"/>
	<path class="st6" d="M12.3,99.5c-0.4-0.6-0.4-1.2-0.6-1.8C12.5,97.8,12.7,98.6,12.3,99.5z"/>
	<path class="st6" d="M38.3,18.1c-0.4,0-0.8,0-1.1,0c-0.2,0-0.3-0.2-0.3-0.4c0.1-0.3,0.4-0.3,0.5-0.2c0.5,0.4,1,0.3,1.5,0.1
		c0.2-0.1,0.4-0.1,0.6,0.1c0.1,0.1,0.1,0.2,0.1,0.3c-0.1,0.2-0.4,0.1-0.5,0.1C38.8,18.1,38.6,18.1,38.3,18.1
		C38.3,18.1,38.3,18.1,38.3,18.1z"/>
	<path class="st6" d="M57.7,79.5c0.1,0,0.1,0,0.2,0c0.1,0.2,0.3,0.2,0.5,0.2c0,0.1,0,0.1,0.1,0.2c0,0.4,0,0.7,0,0.9
		c0.1-0.6-0.4-0.8-1-1.1c-0.4-0.1-0.9-0.1-1-0.8C56.9,79.2,57.3,79.4,57.7,79.5z"/>
	<path class="st6" d="M34.2,60.5c0,0.5-0.2,0.9-0.4,1.4c-0.1,0.3-0.2,0.1-0.3,0c-0.1-0.1-0.1-0.3-0.2-0.4l0,0
		c0.4-0.1,0.2-0.3,0.2-0.5l0,0c0.4,0,0.1-0.3,0.2-0.5l0,0c0.1,0,0.3,0,0.4,0C34,60.5,34.1,60.5,34.2,60.5L34.2,60.5z"/>
	<path class="st6" d="M32.6,63.7c-0.3,1-0.7,2-1,2.9c0,0-0.1,0-0.1,0C31.8,65.7,32.1,64.7,32.6,63.7C32.5,63.7,32.5,63.7,32.6,63.7z
		"/>
	<path class="st6" d="M7.8,93.5L7.8,93.5c0-0.3,0-0.6,0.4-0.6c0.5,0,0.9,0,1.4,0.1C9,93.1,8.3,93,7.8,93.5z"/>
	<path class="st6" d="M47.1,100.5c0.7-0.3,1.4-0.3,2.1,0C48.5,100.8,47.8,100.8,47.1,100.5z"/>
	<path class="st5" d="M51.7,81.6c-0.2-0.7-0.2-1.4,0-2.1C51.7,80.2,51.7,80.9,51.7,81.6z"/>
	<path class="st6" d="M7.9,94.3C8.1,94,8.4,94,8.7,94c0.5,0.1,1,0.1,1.7,0.2c-0.7,0.4-1.4,0-1.9,0.3C8.2,94.5,8,94.4,7.9,94.3z"/>
	<path class="st5" d="M51.6,82.9c0.1,0.7-0.2,1.5-0.1,2.2C51.4,84.3,51.3,83.6,51.6,82.9z"/>
	<path class="st6" d="M46.3,70.1c0.3-0.2,0.6-0.6,1-0.5C47.4,70.5,46.9,70.3,46.3,70.1z"/>
	<path class="st6" d="M31.2,68c-0.2,0.5-0.4,0.9-0.5,1.4c0,0,0,0,0,0c0.1-0.5,0.3-1,0.4-1.4C31.1,68,31.1,68,31.2,68z"/>
	<path class="st5" d="M48.1,84.9c0-0.7,0-1.4,0-2.1c0,0,0.1,0,0.1,0C48.2,83.5,48.2,84.2,48.1,84.9C48.2,84.9,48.2,84.9,48.1,84.9z"
		/>
	<path class="st5" d="M43.3,74.7c0-0.7,0-1.3,0-2c0,0,0.1,0,0.1,0c0,0.7,0,1.3,0,2C43.4,74.7,43.4,74.7,43.3,74.7z"/>
	<path class="st5" d="M48,88.3c0-0.7,0-1.4,0-2.2c0,0,0.1,0,0.1,0C48.1,86.9,48.1,87.6,48,88.3C48,88.3,48,88.3,48,88.3z"/>
	<path class="st5" d="M51.9,72.6c0,0.7,0,1.4,0,2.1C51.7,74,51.8,73.3,51.9,72.6z"/>
	<path class="st5" d="M48.5,75.9c0,0.7,0,1.4,0,2.1c0,0-0.1,0-0.1,0c0-0.7,0-1.4,0-2.1C48.5,75.9,48.5,75.9,48.5,75.9z"/>
	<path class="st5" d="M51.7,78.2c0-0.6,0-1.3,0-1.9c0,0,0.1,0,0.1,0C51.8,76.9,51.8,77.5,51.7,78.2C51.7,78.2,51.7,78.2,51.7,78.2z"
		/>
	<path class="st5" d="M33.3,61.4c0.1,0.1,0.1,0.3,0.2,0.4c-0.4,0.1-0.3,0.5-0.6,0.8C33,62.2,33,61.8,33.3,61.4z"/>
	<path class="st5" d="M46.5,75.9c0,0.3,0,0.6,0,1c0,0-0.1,0-0.1,0C46.4,76.6,46.4,76.2,46.5,75.9C46.5,75.9,46.5,75.9,46.5,75.9z"/>
	<path class="st5" d="M34,60.5c-0.1,0-0.3,0-0.4,0c0-0.3,0.1-0.5,0.2-0.8C33.9,60,33.9,60.3,34,60.5z"/>
	<path class="st5" d="M42.1,35.2c0.5,0.1,0.4,0.3,0.2,0.7c-0.1-0.2-0.2-0.3-0.2-0.5C42.1,35.3,42.1,35.2,42.1,35.2z"/>
	<path class="st6" d="M30.3,70.4c-0.1,0.2,0,0.4-0.2,0.6C30.1,70.7,30.3,70.6,30.3,70.4L30.3,70.4z"/>
	<path class="st6" d="M41.5,36.9c0.1,0,0.2,0,0.2,0c0.1,0.1-0.1,0.2-0.1,0.3C41.4,37.2,41.4,37,41.5,36.9z"/>
	<path class="st5" d="M46.3,77.9C46.3,78,46.4,78,46.3,77.9c0.1,0.1,0.1,0.2,0.1,0.2c0,0.1-0.1,0.1-0.1,0
		C46.3,78.1,46.3,78,46.3,77.9z"/>
	<path class="st5" d="M33.6,60.5c0,0.2,0.2,0.4-0.2,0.5C33.4,60.8,33.4,60.6,33.6,60.5z"/>
	<path class="st5" d="M33.4,60.9c0,0.2,0.2,0.4-0.2,0.5C33.3,61.2,33.3,61.1,33.4,60.9z"/>
	<path class="st5" d="M41.8,36.1c0.4,0.1,0.2,0.2,0,0.4C41.8,36.3,41.8,36.2,41.8,36.1z"/>
	<path class="st6" d="M30.3,70.4c0,0,0-0.1,0-0.1C30.4,70.3,30.3,70.4,30.3,70.4L30.3,70.4z"/>
	<path class="st6" d="M33.4,56.6c0,0,0,0.1,0,0.1c0,0.1-0.1,0-0.1,0C33.3,56.7,33.4,56.7,33.4,56.6L33.4,56.6z"/>
	<path class="st6" d="M47,17.9C47,17.9,47,17.9,47,17.9C47,18,47,17.9,47,17.9C47,17.9,47,17.9,47,17.9C47,17.9,47,17.9,47,17.9z"/>
	<path class="st6" d="M13.2,57.4c0.1-0.1,0.1-0.2,0.2-0.3l0,0C13.3,57.2,13.2,57.3,13.2,57.4L13.2,57.4z"/>
	<path class="st6" d="M34.2,60.5c0,0,0-0.1,0-0.1c0,0,0,0,0.1,0.1C34.3,60.4,34.2,60.5,34.2,60.5C34.2,60.5,34.2,60.5,34.2,60.5z"/>
	<path class="st5" d="M37.6,61.6c0.2,0.1,0.1,0.2,0,0.3c0,0,0,0,0,0C37.6,61.8,37.6,61.7,37.6,61.6L37.6,61.6z"/>
	<polygon class="st6" points="32.8,63.1 32.7,63.2 32.7,63.1 	"/>
	<path class="st6" d="M46.2,100.9L46.2,100.9L46.2,100.9z"/>
	<path class="st5" d="M12,91.8C12,91.8,12,91.8,12,91.8C12,91.8,12,91.8,12,91.8C12.1,91.9,12,91.9,12,91.8C12,91.9,12,91.8,12,91.8
		z"/>
	<path class="st5" d="M12.6,96.3c0,0,0-0.1,0-0.1c0,0-0.1,0-0.1,0C12.5,96.2,12.5,96.3,12.6,96.3L12.6,96.3z"/>
	<path class="st5" d="M12.5,96.3C12.6,96.3,12.6,96.3,12.5,96.3C12.6,96.3,12.6,96.3,12.5,96.3C12.6,96.2,12.6,96.2,12.5,96.3
		C12.6,96.3,12.5,96.3,12.5,96.3z"/>
	<path class="st4" d="M44.4,102.2c0.9-0.1,1.8,0.1,2.7,0.2c1.1,0.2,2.2-0.1,3.3,0.2c-11.5,0.7-23,0.3-34.5-0.8
		c0.6-0.6,5.8-1.2,8.2-1.1c0,0.2,0.2,0.2,0.2,0.2c0.7,0,1.3-0.1,2,0c0.1,0,0.3-0.1,0.2-0.3c0.1-0.1,0.2-0.2,0.2-0.3
		c0.2,0.3,0.5,0.3,0.8,0.4c2.1,0.5,4.2,0.3,6.3,0.7c1.9,0.3,3.8,0.5,5.7,0.4c1.3-0.1,2.7,0.3,4,0.1C43.7,102,44,102.1,44.4,102.2
		C44.3,102.2,44.3,102.2,44.4,102.2L44.4,102.2z"/>
	<path class="st4" d="M57.9,102c-1,0.2-1.9,0.5-3,0.4c0.2,0.4,0.5,0.5,0.9,0.5c0.6,0,1.1,0.1,1.7,0.1
		C57.6,102.7,57.7,102.3,57.9,102z"/>
	<path class="st6" d="M43.4,102c-1.3,0.1-2.6-0.2-4-0.1c-1.9,0.1-3.9-0.1-5.7-0.4c-2.1-0.4-4.2-0.2-6.3-0.7
		c-0.3-0.1-0.6-0.1-0.8-0.4c-0.1-0.4,0.2-0.4,0.4-0.3c2.9,0.7,5.9,0.8,8.8,0.9c2.5,0.1,4.9,0.6,7.4,0.9
		C43.4,101.8,43.4,101.9,43.4,102z"/>
	<path class="st6" d="M26.4,100.6c0.2,0.2,0,0.3-0.2,0.3c-0.7-0.1-1.3,0-2,0c-0.1,0-0.3,0-0.2-0.2C24.8,100.6,25.6,100.4,26.4,100.6
		z"/>
	<path class="st4" d="M51.4,103.1c-1.5,0.5-2.7-0.2-4,0C48.7,103.2,50,102.9,51.4,103.1z"/>
	<path class="st4" d="M41.1,100.8c0.3-0.5,1.2-0.6,1.6-0.2c0.1,0.1,0.3,0.2,0.4,0.2C42.4,101,41.7,100.8,41.1,100.8z"/>
	<path class="st4" d="M22,80c0.5-0.3,0.9-0.3,1.3-0.3c0.1,0,0.3-0.1,0.2,0.1c0,0.1,0.2,0.6-0.3,0.4C22.9,80.1,22.5,80.2,22,80z"/>
	<path class="st4" d="M34.7,81.3c0.3,0,0.6,0,1,0c0.3,0,0.6,0,0.9,0c0,0,0,0,0,0c-0.3,0-0.7,0-1,0C35.3,81.4,35,81,34.7,81.3z"/>
	<path class="st6" d="M21.7,82.2c0.1-0.3,0.3-0.6,0.8-0.6C22.2,81.8,21.9,82,21.7,82.2L21.7,82.2z"/>
	<path class="st6" d="M21.4,89.3c0-0.4,0-0.8,0-1.2C21.5,88.5,21.5,88.9,21.4,89.3L21.4,89.3z"/>
	<polygon class="st6" points="44.4,102.2 44.3,102.2 44.3,102.2 44.3,102.1 	"/>
	<path class="st6" d="M21.7,82.2C21.7,82.2,21.6,82.2,21.7,82.2C21.6,82.2,21.6,82.2,21.7,82.2L21.7,82.2z"/>
	<polygon class="st6" points="22.4,92.5 22.4,92.5 22.4,92.5 	"/>
	<path class="st6" d="M14.1,51.2c0,0.1-0.1,0.3-0.1,0.4C13.9,51.4,14,51.3,14.1,51.2z"/>
	<path class="st4" d="M59.8,75.2c1.2,0.5,0.4,1.5,0.7,2.3C59.6,77.5,59.7,77.6,59.8,75.2z"/>
	<path class="st4" d="M55.4,78.5c-0.4-0.9,0.1-1.7,0-2.6c0.1,0,0.1,0,0.2,0c0,0.9,0,1.7,0,2.6C55.6,78.5,55.5,78.5,55.4,78.5z"/>
	<path class="st4" d="M55.5,75.1c-0.2-0.8-0.1-1.7,0-2.5c0.1,0,0.1,0,0.2,0c0,0.8,0,1.7,0,2.5C55.7,75.1,55.6,75.1,55.5,75.1z"/>
	<path class="st4" d="M56.8,75.8c0-0.7,0-1.4,0-2.1c0-0.1,0-0.3,0.2-0.2c0.2,0,0.2,0.2,0.2,0.3c0,0.7-0.1,1.4-0.1,2.1
		C57,75.8,56.9,75.8,56.8,75.8z"/>
	<path class="st4" d="M57.4,76.1c0-0.7,0-1.3,0-2c0-0.1,0-0.3,0.2-0.2c0.1,0,0.2,0.1,0.2,0.2c-0.1,0.7-0.1,1.3-0.2,2
		C57.6,76.1,57.5,76.1,57.4,76.1z"/>
	<path class="st4" d="M56.4,73c0,0.8,0,1.6,0,2.4c-0.4-0.8-0.1-1.6-0.2-2.4C56.2,73,56.3,73,56.4,73z"/>
	<path class="st4" d="M58.3,79.8c-0.2,0-0.4-0.1-0.5-0.2c0.1-0.8,0.2-1.5,0.3-2.3c0.1,0,0.1,0,0.2,0C58.3,78.1,58.3,78.9,58.3,79.8z
		"/>
	<path class="st4" d="M59.2,76.9c0-0.7,0.1-1.3,0.1-2C59.6,75.6,59.5,76.3,59.2,76.9z"/>
	<path class="st4" d="M58.3,74.2c0,0.7,0,1.5,0,2.2C58,75.7,58.1,74.9,58.3,74.2z"/>
	<path class="st4" d="M58.8,74.6c0,0.7,0,1.4,0,2.1c-0.3-0.7-0.1-1.4-0.2-2.1C58.7,74.6,58.8,74.6,58.8,74.6z"/>
	<path class="st4" d="M61.2,76.1c0,0.6,0,1.2,0,1.8C60.9,77.2,60.9,76.8,61.2,76.1z"/>
	<path class="st4" d="M62.4,79.5c0.1,0,0.4-0.1,0.4,0.2c0,0.3-0.2,0.3-0.4,0.3c-0.2,0-0.4-0.1-0.4-0.4
		C62.1,79.5,62.3,79.5,62.4,79.5z"/>
	<polygon class="st4" points="40.1,70.3 40.2,70.3 40.2,70.2 	"/>
	<path class="st4" d="M42.1,37.4c0.4-0.6,0.3-1.4,0.8-1.9c0.3,0.4,0.6,0.8,1,1.2c0.7-1.1,0.3-1.9-0.5-2.7c0-0.8,0.4-1.5,0.7-2.2
		c0.6-1.8,1.3-3.6,1.9-5.4c0.7-1.9,1.3-3.8,2-5.8c0.1,0.6-0.1,1.1-0.2,1.7c-0.4,1.4-0.8,2.8-1.1,4.1c-0.3,1.7-0.7,3.4-1.1,5.1
		c-1.8,7.7-3.6,15.4-5.4,23.1c-0.1,0.3-0.1,0.5-0.3,0.7c0.4-1.1-0.2-1.7-1-2.3c-1.5-1.2-1.5-1.2-0.9-2.9
		C39.2,45.8,40.7,41.6,42.1,37.4z"/>
	<path class="st4" d="M46.6,40c-1.2,3-2.6,5.9-3.9,8.8c-0.5,1.2-1,2.4-1.8,3.5c0.2-1.1,0.5-2.2,0.8-3.3c0-0.1,0.2-0.1,0.3,0
		c0,0,0,0.1,0,0.1c-0.2,0.4-0.3,0.7-0.2,1.1c0.1-0.4,0.1-0.8,0.2-1.1c0,0,0.1-0.1,0.1-0.1c0-0.1-0.1-0.3-0.1-0.4l0,0
		c0-0.1,0.1-0.1,0.1-0.2c0.3-0.7,0.4-1.4,0.6-2.2c0-0.1,0-0.2,0-0.3c0.2-0.3,0.2-0.6,0.2-0.9l0,0c0.2-0.2,0.2-0.4,0.2-0.6l0,0
		c0.2-0.2,0.1-0.4,0.2-0.6l0,0c0.3-0.8,0.6-1.5,0.5-2.3c0.2-1.8,0.7-3.5,1.1-5.3c0.1-0.2,0-0.5,0.4-0.5c0.2-0.6,0.4-1.2,0.4-1.8l0,0
		c0.2-0.2,0.2-0.4,0.2-0.6l0,0c0.2-0.2,0.2-0.4,0.2-0.6l0,0c0.3-0.5,0.3-1.1,0.5-1.7c0.1-0.4,0.3-0.8,0-1.2c0.1-0.6,0.3-1.2,0.4-1.8
		c0.1-0.2,0-0.5,0.4-0.5c0.3,0,0.4,0.2,0.5,0.3c0.2,0.2,0.3,0.4,0.4,0.5l0,0c0.4,1,1.1,2,1.7,2.9c0.4,0.6,0.4,1.2,0.2,1.8
		c-0.9,2-1.8,3.9-2.7,6c-0.7-1-1.4-1.9-2.2-2.9c-0.2,0.7-0.6,1.3-0.3,1.6c0.6,0.7,1,1.7,1.9,2.1C46.5,39.9,46.6,39.9,46.6,40z"/>
	<path class="st4" d="M48.2,22.4c-0.2-0.2-0.1-0.4-0.1-0.6c0.3,0.4,0.3,0.1,0.4-0.2c0.3-0.7,0.1-1.5,0.6-2.1
		c1.1,2.2,2.3,4.3,3.4,6.5c0.1,0.3,0.2,0.5,0,0.8c-0.7,1.4-1.3,2.7-1.9,4.1c-0.1,0.2-0.2,0.5-0.5,0.5c-0.4,0.1-0.3-0.3-0.5-0.5
		c-0.7-0.8-0.9-1.9-1.8-2.7l0,0c0-0.5-0.5-0.8-0.5-1.3c0-0.3-0.1-0.5,0.1-0.7c0,0,0,0,0.1,0c0,0,0,0-0.1,0c0-0.2,0-0.3,0-0.5
		c0-0.1,0.1-0.2,0.1-0.3c0-0.2,0-0.3,0.1-0.5c0.1-0.1,0.1-0.2,0.1-0.3c0-0.1,0.1-0.2,0.1-0.2c0.1-0.2,0-0.6,0.4-0.6c0,0,0,0,0,0
		c-0.4-0.2,0.1-0.8-0.4-1C48,22.7,47.9,22.4,48.2,22.4C48.2,22.4,48.2,22.5,48.2,22.4C48.2,22.6,48.2,22.6,48.2,22.4
		C48.3,22.5,48.3,22.4,48.2,22.4L48.2,22.4C48.2,22.4,48.3,22.4,48.2,22.4L48.2,22.4z"/>
	<path class="st6" d="M44.3,46.8c-0.8,1.8-1.6,3.6-2.4,5.4c-0.1,0.2-0.2,0.4-0.5,0.4c0.8-1.8,1.6-3.6,2.4-5.5
		C44,46.9,44,46.7,44.3,46.8z"/>
	<path class="st6" d="M50.4,33.4c-0.8,1.7-1.6,3.5-2.4,5.2c-0.2,0.3-0.4,0.7-0.3,1.1c-0.1,0-0.2,0-0.3,0c0,0-0.1,0-0.1-0.1
		c0.8-2,1.7-3.9,2.6-5.8C49.9,33.5,50.1,33.4,50.4,33.4z"/>
	<path class="st6" d="M51.1,33.1c0.3-1.2,1-2.3,1-3.5l0,0c0.2,0,0.2-0.2,0.2-0.3l0,0c0.2-0.1,0.2-0.2,0.1-0.4
		c0.1-0.3,0.1-0.6,0.5-0.7c0,0,0.1,0,0.1,0.1c-0.4,1.6-0.9,3-1.4,4.6C51.5,32.9,51.4,33.2,51.1,33.1z"/>
	<path class="st6" d="M49.2,19.6c-0.5,0.6-0.4,1.4-0.6,2.1c-0.1,0.3-0.1,0.5-0.4,0.2c0.2-0.9,0.4-1.8,0.7-2.9
		C49,19.3,49.1,19.4,49.2,19.6z"/>
	<path class="st6" d="M42.7,46.2c-0.2,0.7-0.3,1.5-0.6,2.2c-0.2-0.6,0-1.3,0.2-1.9C42.3,46.2,42.5,46.2,42.7,46.2z"/>
	<path class="st6" d="M43.6,41.4c0.1,0.8-0.1,1.6-0.5,2.3c0-0.1,0-0.2,0-0.3C43,42.8,43.2,42.1,43.6,41.4z"/>
	<path class="st6" d="M48.3,23.9c-0.4,0-0.3,0.4-0.4,0.6c-0.3-0.6-0.1-1.1,0-1.6C48.4,23.1,47.9,23.7,48.3,23.9L48.3,23.9z"/>
	<path class="st6" d="M46.2,29.8c0.3,0.4,0.2,0.8,0,1.2c-0.2,0.5-0.2,1.2-0.5,1.7c-0.1-0.5,0.3-1,0.3-1.6c0-0.2,0-0.4-0.1-0.6
		c0.1,0.1,0.2,0.1,0.2,0c0-0.1,0.1-0.2-0.1-0.3C46.1,30.1,46.1,29.9,46.2,29.8z"/>
	<path class="st6" d="M45.3,44.7c-0.2,0.6-0.4,1.1-0.7,1.6C44.3,45.7,44.6,45.1,45.3,44.7z"/>
	<path class="st6" d="M45.5,33.9c0,0.7-0.2,1.2-0.4,1.8c-0.3-0.5,0.1-1.1,0.1-1.6C45.3,34.1,45.4,34,45.5,33.9z"/>
	<path class="st4" d="M43.2,43.5c0,0.1,0,0.2,0,0.3l0,0C43,44,43,44.2,43,44.4l0,0c-0.2,0.2-0.1,0.4-0.2,0.6l0,0
		c-0.2,0.2-0.1,0.5-0.3,0.6c0-0.7,0.3-1.3,0.4-2C42.9,43.5,43.1,43.5,43.2,43.5z"/>
	<path class="st4" d="M46,31.1c0,0.5-0.3,1-0.3,1.6l0,0c-0.1,0-0.1,0-0.2,0l0,0C45.7,32.1,45.6,31.5,46,31.1z"/>
	<path class="st6" d="M42.5,45.6c0.3-0.1,0.1-0.5,0.3-0.6c0,0.3,0,0.6-0.2,0.9c0,0-0.1,0-0.1,0C42.5,45.8,42.5,45.7,42.5,45.6
		L42.5,45.6z"/>
	<path class="st6" d="M47.8,24.8c0,0.1,0,0.2-0.1,0.3c-0.1,0-0.2,0-0.2-0.2C47.5,24.8,47.7,24.8,47.8,24.8z"/>
	<path class="st4" d="M45.5,33.9c-0.1,0.1-0.2,0.2-0.3,0.3c0.1-0.3,0.1-0.6,0.2-0.9c0,0,0,0,0.1,0C45.5,33.5,45.5,33.7,45.5,33.9
		L45.5,33.9z"/>
	<path class="st6" d="M47.4,39.6c0,0.2-0.1,0.4-0.3,0.5c-0.1-0.2,0.1-0.4,0.2-0.5C47.3,39.6,47.3,39.6,47.4,39.6z"/>
	<path class="st4" d="M38.7,59.5c-0.2-0.2-0.1-0.4,0.1-0.6c0.3,0.2,0.2,0.5,0.1,0.7C38.9,59.6,38.8,59.5,38.7,59.5z"/>
	<path class="st6" d="M47.6,25.6c0,0.1-0.1,0.2-0.1,0.3c0-0.1-0.1-0.2-0.1-0.3C47.4,25.4,47.5,25.5,47.6,25.6z"/>
	<path class="st6" d="M41.3,53C41.3,53,41.3,53,41.3,53C41.3,53,41.3,53,41.3,53L41.3,53z"/>
	<path class="st4" d="M40.5,55.2C40.4,55.2,40.4,55.1,40.5,55.2c-0.1-0.1-0.1-0.2,0-0.2c0,0,0.1,0,0.1,0
		C40.5,55.1,40.5,55.1,40.5,55.2z"/>
	<path class="st4" d="M46.1,30.3c0.2,0,0.1,0.2,0.1,0.3c0,0.1-0.1,0.1-0.2,0C46,30.5,46.1,30.4,46.1,30.3z"/>
	<path class="st4" d="M45.4,33.2c0.1-0.2,0-0.4,0.2-0.6l0,0c0,0.2,0,0.4,0,0.6l0,0C45.6,33.3,45.5,33.3,45.4,33.2
		C45.5,33.3,45.4,33.2,45.4,33.2z"/>
	<path class="st4" d="M40,57.8c-0.1,0.1-0.1,0.2-0.3,0.1c0,0,0-0.1,0-0.1C39.8,57.7,39.9,57.7,40,57.8C40,57.8,40,57.8,40,57.8z"/>
	<path class="st4" d="M48.3,20.3c0,0-0.1,0.1-0.1,0.2c0,0-0.1-0.1-0.1-0.1c0,0,0-0.1,0.1-0.1C48.2,20.2,48.2,20.2,48.3,20.3z"/>
	<path class="st6" d="M50.6,20.4c0.1,0.1,0.2,0.2,0.2,0.3l0,0C50.6,20.7,50.6,20.6,50.6,20.4L50.6,20.4z"/>
	<path class="st4" d="M42.5,45.6c0,0.1,0,0.2,0,0.3C42.4,45.8,42.4,45.7,42.5,45.6z"/>
	<path class="st6" d="M50.4,20.1c-0.1-0.1-0.1-0.2-0.1-0.3l0,0C50.4,19.9,50.4,20,50.4,20.1L50.4,20.1z"/>
	<path class="st6" d="M50.6,20.5c-0.1-0.1-0.1-0.2-0.2-0.3l0,0C50.6,20.2,50.6,20.3,50.6,20.5L50.6,20.5z"/>
	<path class="st6" d="M51.4,22c0.1,0.1,0.2,0.2,0.2,0.3C51.4,22.2,51.4,22.1,51.4,22z"/>
	<path class="st6" d="M51.5,22.3c0.1,0,0.1,0,0.2,0c0,0.1-0.1,0.1-0.1,0.2C51.6,22.4,51.5,22.4,51.5,22.3z"/>
	<path class="st6" d="M48.3,22.4c0,0,0,0.1,0,0.1C48.2,22.6,48.2,22.6,48.3,22.4C48.2,22.5,48.2,22.4,48.3,22.4L48.3,22.4z"/>
	<path class="st6" d="M47.5,26.4C47.5,26.4,47.5,26.4,47.5,26.4C47.5,26.4,47.5,26.4,47.5,26.4L47.5,26.4z"/>
	<path class="st6" d="M53.2,27.4C53.2,27.4,53.2,27.3,53.2,27.4C53.2,27.3,53.2,27.4,53.2,27.4L53.2,27.4z"/>
	<path class="st6" d="M53.2,27.4c0,0,0,0.1,0,0.1c0,0-0.1,0-0.1-0.1C53.1,27.4,53.2,27.4,53.2,27.4L53.2,27.4z"/>
	<path class="st6" d="M52.9,28.1c0-0.1,0-0.2,0.1-0.2C53.1,28,53,28.1,52.9,28.1C52.9,28.2,52.9,28.2,52.9,28.1z"/>
	<path class="st4" d="M52.3,28.9c0.1,0.1,0.1,0.3-0.1,0.4C52.3,29.1,52.3,29,52.3,28.9z"/>
	<path class="st4" d="M52.3,29.2c0,0.1,0.1,0.3-0.2,0.3C52.1,29.4,52.1,29.3,52.3,29.2z"/>
	<path class="st6" d="M51.2,21.7c0.1,0.1,0.2,0.2,0.1,0.3C51.2,21.9,51.2,21.8,51.2,21.7z"/>
	<path class="st6" d="M51.1,21.4c0.1,0.1,0.2,0.2,0.1,0.3C51,21.6,51,21.5,51.1,21.4z"/>
	<path class="st4" d="M46.5,39.8c0.1,0,0.1-0.2,0.2-0.1c0.1,0.1,0,0.2-0.1,0.2C46.6,39.9,46.5,39.9,46.5,39.8z"/>
	<path class="st6" d="M51.1,21c0,0.1,0,0.2,0,0.3c-0.2,0-0.2-0.2-0.2-0.3l0,0C51,21,51,21,51.1,21z"/>
	<path class="st6" d="M50.8,20.7c0.1,0.1,0.1,0.2,0.2,0.3l0,0C50.8,21,50.7,20.9,50.8,20.7L50.8,20.7z"/>
	<path class="st6" d="M49.5,18.3c0,0.1,0,0.1,0.1,0.2C49.5,18.4,49.5,18.4,49.5,18.3C49.5,18.3,49.5,18.3,49.5,18.3z"/>
	<path class="st6" d="M49.4,18c0.1,0.1,0.2,0.2,0.2,0.3c0,0,0,0,0,0C49.4,18.2,49.3,18.1,49.4,18L49.4,18z"/>
	<path class="st6" d="M49.3,18C49.3,17.9,49.3,17.9,49.3,18C49.4,17.8,49.3,17.9,49.3,18L49.3,18z"/>
	<path class="st6" d="M50.1,19.5c0.1,0.1,0.1,0.2,0.1,0.3l0,0C50.1,19.8,50.1,19.7,50.1,19.5C50.1,19.5,50.1,19.5,50.1,19.5z"/>
	<path class="st6" d="M49.8,18.9c0,0.1,0.1,0.1,0.1,0.2c0,0,0,0-0.1,0C49.8,19,49.8,19,49.8,18.9L49.8,18.9z"/>
	<path class="st4" d="M37.6,61.6c0,0.1,0,0.2,0,0.3C37.5,61.8,37.4,61.7,37.6,61.6z"/>
	<path class="st4" d="M36.9,62.8c0,0,0.1-0.1,0.1-0.1c0,0,0,0.1,0,0.1C37.1,62.8,37,62.8,36.9,62.8C36.9,62.7,36.9,62.8,36.9,62.8z"
		/>
	<path class="st6" d="M49.8,18.9C49.8,18.9,49.8,18.9,49.8,18.9C49.8,18.8,49.8,18.9,49.8,18.9L49.8,18.9z"/>
	<path class="st6" d="M50.1,19.5c-0.1,0-0.1-0.1,0-0.2C50.1,19.4,50.1,19.5,50.1,19.5C50.1,19.5,50.1,19.5,50.1,19.5z"/>
	<path class="st6" d="M41.9,48.5L41.9,48.5C41.9,48.5,41.9,48.5,41.9,48.5z"/>
	<polygon class="st6" points="48.2,22.4 48.3,22.4 48.2,22.4 	"/>
	<path class="st5" d="M45.5,43.9c0,0,0.1,0,0.1,0C45.6,44,45.5,43.9,45.5,43.9C45.4,43.9,45.5,43.9,45.5,43.9z"/>
	<path class="st5" d="M43.4,34c0.7,0.8,1.2,1.6,0.5,2.7c-0.4-0.3-0.7-0.8-1-1.2C42.7,34.9,42.9,34.4,43.4,34z"/>
	<path class="st6" d="M41.9,49.1c-0.1,0.4-0.1,0.8-0.2,1.1C41.6,49.8,41.8,49.4,41.9,49.1L41.9,49.1z"/>
	<path class="st6" d="M45.5,33.3c0.1,0,0.1,0,0.2,0c0,0.2,0,0.5-0.2,0.6C45.5,33.7,45.5,33.5,45.5,33.3z"/>
	<path class="st6" d="M43,44.4c0-0.2,0-0.5,0.2-0.6C43.2,44,43.2,44.2,43,44.4z"/>
	<path class="st6" d="M45.6,33.3c0-0.2,0-0.4,0-0.6c0.1,0,0.1,0,0.2,0C45.8,32.9,45.9,33.1,45.6,33.3z"/>
	<path class="st6" d="M42.9,45c0-0.2-0.1-0.5,0.2-0.6C43,44.6,43.1,44.9,42.9,45z"/>
	<path class="st6" d="M41.9,49C41.9,49,41.9,49,41.9,49c0-0.1,0.1-0.1,0.1-0.1C42,49,42,49,41.9,49L41.9,49z"/>
	<path class="st6" d="M48.3,24C48.3,24,48.3,24,48.3,24L48.3,24z"/>
</g>
</svg>
