<?xml version="1.0" encoding="utf-8"?>
<!-- Generator: Adobe Illustrator 21.1.0, SVG Export Plug-In . SVG Version: 6.00 Build 0)  -->
<svg version="1.1" id="Capa_1" xmlns="http://www.w3.org/2000/svg" xmlns:xlink="http://www.w3.org/1999/xlink" x="0px" y="0px"
	 viewBox="0 0 185.4 38.5" style="enable-background:new 0 0 185.4 38.5;" xml:space="preserve">
<style type="text/css">
	.st0{fill-rule:evenodd;clip-rule:evenodd;fill:#C63435;}
	.st1{fill-rule:evenodd;clip-rule:evenodd;fill:#2B4A8D;}
	.st2{fill-rule:evenodd;clip-rule:evenodd;fill:#FFFFFF;}
	.st3{fill-rule:evenodd;clip-rule:evenodd;fill:#FDFFFF;}
	.st4{fill-rule:evenodd;clip-rule:evenodd;fill:#365191;}
	.st5{fill-rule:evenodd;clip-rule:evenodd;fill:#72B8CC;}
	.st6{fill-rule:evenodd;clip-rule:evenodd;fill:#6E3F8B;}
	.st7{fill-rule:evenodd;clip-rule:evenodd;fill:#2D3E8C;}
	.st8{fill-rule:evenodd;clip-rule:evenodd;fill:none;}
	.st9{fill:#FDFDFC;}
	.st10{font-family:'Arial-BoldMT';}
	.st11{font-size:23px;}
	.st12{letter-spacing:-1;}
</style>
<g>
	<path class="st0" d="M63.8,19.4c-3.9,2.3-7.7,4.7-11.6,7c-6.6,4-13.1,7.9-19.7,11.9c-0.4,0.2-0.7,0.2-1.1,0
		c-8.2-5-16.5-9.9-24.8-14.9c-2.2-1.3-4.4-2.7-6.7-4c1.2-0.7,2.3-1.4,3.4-2.1c9.4-5.7,18.7-11.4,28.1-17.1c0.4-0.2,0.6-0.3,1,0
		c10.4,6.4,20.8,12.7,31.1,19.1C63.7,19.3,63.7,19.4,63.8,19.4z"/>
	<path class="st1" d="M41.3,12.8c2,0,4,0,6,0c0.6,0,0.7,0.2,0.7,0.7c0,1.1,0,2.2,0,3.4c0.1,0.3,0.2,0.5,0.2,0.8c0,1.1,0,2.2,0,3.3
		c0,0.3-0.1,0.6-0.2,0.8c0,1.1,0,2.3,0,3.4c0,0.5-0.1,0.7-0.6,0.7c-2.1,0-4.1,0-6.2,0c-0.5,0.2-1,0.2-1.5,0.2c-5.1,0-10.1,0-15.2,0
		c-0.5,0-1-0.1-1.5-0.2c-2.1,0-4.3,0-6.4,0c-0.5,0-0.7-0.1-0.7-0.6c0-1.2,0-2.4,0-3.6c-0.1-0.2-0.2-0.5-0.2-0.8c0-1.1,0-2.1,0-3.2
		c0-0.3,0.1-0.5,0.2-0.8c0-1.2,0-2.4,0-3.7c0-0.4,0.1-0.5,0.5-0.5c2.1,0,4.2,0,6.3,0c0.5-0.2,1-0.2,1.5-0.2c5.2,0,10.3,0,15.5,0
		C40.2,12.6,40.8,12.6,41.3,12.8z"/>
	<path class="st2" d="M41.3,12.8c-3.2,0-6.3,0-9.5,0c-3,0-6,0-9.1,0c3-1.8,6-3.7,9-5.5c0.3-0.2,0.4-0.1,0.7,0
		C35.3,9.1,38.3,10.9,41.3,12.8z"/>
	<path class="st2" d="M22.9,26c4.8,0,9.6,0,14.4,0c1.3,0,2.6,0,3.9,0c-2.9,1.8-5.8,3.6-8.8,5.3c-0.2,0.1-0.4,0.2-0.6,0
		C28.8,29.5,25.8,27.8,22.9,26z"/>
	<path class="st2" d="M47.9,21.9c0-1.7,0-3.3,0-5c1.3,0.8,2.7,1.6,4.2,2.5C50.6,20.3,49.3,21.1,47.9,21.9z"/>
	<path class="st2" d="M15.8,17c0,1.6,0,3.2,0,4.8c-1.3-0.8-2.6-1.5-4-2.4C13.2,18.6,14.5,17.8,15.8,17z"/>
	<path class="st2" d="M24.8,18.5c-0.5,1.3-0.9,2.5-1.3,3.8c-0.1,0.4-0.3,0.5-0.7,0.5c-0.4,0-0.6-0.1-0.8-0.5
		c-0.4-1.1-0.8-2.2-1.2-3.3c-0.1-0.2,0-0.4-0.3-0.5c0,1.2,0,2.4,0,3.6c0,0.6-0.3,0.7-0.8,0.6c-0.4,0-0.8,0.1-0.8-0.6
		c0-1.9,0-3.9,0-5.8c0-0.4,0.1-0.6,0.5-0.6c1.6,0,1.6-0.1,2.2,1.5c0.3,1,0.7,1.9,1,2.9c0.2-0.1,0.2-0.2,0.3-0.4
		c0.3-0.9,0.6-1.7,0.8-2.5c0.5-1.6,0.5-1.6,2.2-1.4c0.3,0,0.4,0.1,0.4,0.4c0,2,0,4.1,0,6.1c0,0.7-0.6,0.3-0.9,0.4
		c-0.3,0.1-0.6,0.1-0.6-0.4c0-1.3,0-2.6,0-3.9C24.9,18.5,24.8,18.5,24.8,18.5z"/>
	<path class="st2" d="M32,21.2c-0.4,1.5-1.9,2.1-3.4,1.5c-1-0.4-1.5-1.4-1.4-2.7c0.1-1.1,0.8-1.9,1.9-2.2c1-0.3,2,0.1,2.6,0.9
		c0.1,0.1,0.2,0.3,0.2,0.5c0.5,1.3,0.4,1.5-1,1.5c-0.6,0-1.2,0-1.9,0c-0.5,0-0.5,0.2-0.4,0.6c0.2,0.6,1.2,0.9,1.8,0.4
		C31,21,31.4,21.1,32,21.2z"/>
	<path class="st2" d="M42.4,17.6c1.6,0,2.6,1,2.6,2.6c0,1.6-1.1,2.7-2.7,2.6c-1.5,0-2.6-1.1-2.5-2.7C39.8,18.6,40.8,17.6,42.4,17.6z
		"/>
	<path class="st3" d="M33.2,20.3c0-0.4,0-0.7,0-1.1c0-0.2,0-0.4-0.3-0.4c-0.5,0-0.5-0.2-0.5-0.6c0-0.4,0.1-0.5,0.5-0.5
		c0.4,0,0.3-0.4,0.3-0.6c0-0.8,0.6-1.1,1.3-0.8c0.3,0.2,0.2,0.5,0.2,0.7c0,0.4,0,0.9,0.6,0.8c0.4-0.1,0.4,0.3,0.4,0.5
		c0,0.3,0,0.6-0.4,0.5c-0.6-0.1-0.6,0.2-0.6,0.6c0,0.4,0,0.9,0,1.3c0,0.5,0,0.9,0.7,0.9c0.5,0,0.2,0.4,0.3,0.7c0,0.3,0,0.4-0.4,0.5
		c-1.5,0.1-2.1-0.3-2.1-1.8C33.2,20.7,33.2,20.5,33.2,20.3z"/>
	<path class="st3" d="M37.6,18.5c0.5-0.5,0.9-0.9,1.5-0.9c0.4,0,0.6,0.1,0.5,0.4c-0.1,0.3,0.4,0.8-0.4,0.9c-1.1,0.1-1.5,0.5-1.5,1.5
		c0,0.6,0,1.2,0,1.8c0.1,0.7-0.4,0.6-0.7,0.6c-0.4,0-0.8,0.1-0.7-0.6c0-1.3,0-2.5,0-3.8c0-0.3-0.2-0.8,0.5-0.7
		C37.2,17.7,37.8,17.5,37.6,18.5z"/>
	<path class="st4" d="M30.7,19.6c-0.6,0-1.1,0-1.7,0c-0.5,0-0.4-0.2-0.2-0.5c0.2-0.4,0.6-0.6,1-0.5C30.3,18.7,30.6,19.1,30.7,19.6z"
		/>
	<path class="st1" d="M43.6,20.2c0,0.5-0.1,0.9-0.4,1.3c-0.2,0.2-0.5,0.3-0.7,0.3c-0.6,0.1-1.1-0.5-1.2-1.4c-0.1-0.9,0.3-1.6,1-1.8
		c0.6-0.1,1.2,0.4,1.3,1.1C43.6,19.9,43.6,20.1,43.6,20.2z"/>
</g>
<rect x="79.9" y="5.8" class="st5" width="25.4" height="27"/>
<rect x="117.7" y="5.8" class="st6" width="25.4" height="27"/>
<rect x="153.3" y="5.8" class="st7" width="28" height="27"/>
<rect x="83.6" y="10.8" class="st8" width="16.7" height="21.8"/>
<text transform="matrix(0.97 0 0 1 85.7305 27.2531)" class="st9 st10 st11">1</text>
<rect x="122.1" y="10.7" class="st8" width="16.7" height="21.8"/>
<text transform="matrix(0.97 0 0 1 124.2178 27.1838)" class="st9 st10 st11">9</text>
<rect x="154.2" y="10.7" class="st8" width="25" height="21.8"/>
<text transform="matrix(0.97 0 0 1 155.1456 27.1838)" class="st9 st10 st11 st12">10</text>
</svg>
